<svg id="Capa_1" enable-background="new 0 0 512 512" height="512" viewBox="0 0 512 512" width="512" xmlns="http://www.w3.org/2000/svg"><path d="m167.639 512h-149.662c-5.523 0-10-4.477-10-10v-492c0-5.523 4.477-10 10-10h139.662c5.523 0 10 4.477 10 10z" fill="#e5ecf1"/><path d="m494.023 512h-284.543v-296.912c0-5.523 4.477-10 10-10h274.543c5.523 0 10 4.477 10 10v286.912c0 5.523-4.477 10-10 10z" fill="#c2d0da"/><path d="m493.716 205.088h-44.795v229.286c0 17.841-14.463 32.303-32.303 32.303h-207.138v45.323h284.236c5.693 0 10.307-4.615 10.307-10.307v-286.298c0-5.692-4.615-10.307-10.307-10.307z" fill="#b6c1cc"/><path d="m456.034 512h-159.661v-502c0-5.523 4.477-10 10-10h139.662c5.523 0 10 4.477 10 10v502z" fill="#e5ecf1"/><path d="m157.331 0h-36.728v440.003c0 14.232-11.537 25.769-25.769 25.769h-86.857v35.921c0 5.693 4.615 10.307 10.307 10.307h149.354v-501.693c.001-5.692-4.614-10.307-10.307-10.307z" fill="#d6e4ea"/><path d="m445.727 0h-36.728v441.033c0 14.232-11.537 25.769-25.769 25.769h-86.858v45.198h159.662v-501.693c0-5.692-4.614-10.307-10.307-10.307z" fill="#d6e4ea"/><path d="m92.898 90.285h-52.477c-2.761 0-5-2.239-5-5v-25.474c0-2.761 2.239-5 5-5h52.476c2.761 0 5 2.239 5 5v25.474c.001 2.761-2.238 5-4.999 5z" fill="#8c9ba6"/><path d="m167.639 90.285h-35.564c-2.761 0-5-2.239-5-5v-25.474c0-2.761 2.239-5 5-5h35.564z" fill="#7c8b96"/><path d="m92.898 151.527h-52.477c-2.761 0-5-2.239-5-5v-25.474c0-2.761 2.239-5 5-5h52.476c2.761 0 5 2.239 5 5v25.474c.001 2.762-2.238 5-4.999 5z" fill="#8c9ba6"/><path d="m167.639 151.527h-35.564c-2.761 0-5-2.239-5-5v-25.474c0-2.761 2.239-5 5-5h35.564z" fill="#7c8b96"/><path d="m92.898 212.769h-52.477c-2.761 0-5-2.239-5-5v-25.474c0-2.761 2.239-5 5-5h52.476c2.761 0 5 2.239 5 5v25.474c.001 2.762-2.238 5-4.999 5z" fill="#8c9ba6"/><path d="m167.639 212.769h-35.564c-2.761 0-5-2.239-5-5v-25.474c0-2.761 2.239-5 5-5h35.564z" fill="#7c8b96"/><path d="m92.898 274.012h-52.477c-2.761 0-5-2.239-5-5v-25.474c0-2.761 2.239-5 5-5h52.476c2.761 0 5 2.239 5 5v25.474c.001 2.761-2.238 5-4.999 5z" fill="#8c9ba6"/><path d="m167.639 274.012h-35.564c-2.761 0-5-2.239-5-5v-25.474c0-2.761 2.239-5 5-5h35.564z" fill="#7c8b96"/><path d="m92.898 335.254h-52.477c-2.761 0-5-2.239-5-5v-25.474c0-2.761 2.239-5 5-5h52.476c2.761 0 5 2.239 5 5v25.474c.001 2.761-2.238 5-4.999 5z" fill="#8c9ba6"/><path d="m167.639 335.254h-35.564c-2.761 0-5-2.239-5-5v-25.474c0-2.761 2.239-5 5-5h35.564z" fill="#7c8b96"/><path d="m92.898 396.496h-52.477c-2.761 0-5-2.239-5-5v-25.474c0-2.761 2.239-5 5-5h52.476c2.761 0 5 2.239 5 5v25.474c.001 2.761-2.238 5-4.999 5z" fill="#8c9ba6"/><path d="m92.898 457.738h-52.477c-2.761 0-5-2.239-5-5v-25.474c0-2.761 2.239-5 5-5h52.476c2.761 0 5 2.239 5 5v25.474c.001 2.762-2.238 5-4.999 5z" fill="#8c9ba6"/><path d="m376.154 512h-243.241v-129.041c0-5.523 4.477-10 10-10h223.241c5.523 0 10 4.477 10 10z" fill="#e5ecf1"/><path d="m365.852 372.959h-35.713v68.333c0 14.224-11.531 25.755-25.755 25.755h-171.471v44.953h243.241v-128.739c0-5.69-4.612-10.302-10.302-10.302z" fill="#d6e4ea"/><path d="m390.588 90.285h-28.769c-2.761 0-5-2.239-5-5v-25.474c0-2.761 2.239-5 5-5h28.769c2.761 0 5 2.239 5 5v25.474c0 2.761-2.238 5-5 5z" fill="#8c9ba6"/><path d="m317.773 90.285h-21.4v-35.474h21.4c2.761 0 5 2.239 5 5v25.474c0 2.761-2.239 5-5 5z" fill="#8c9ba6"/><path d="m456.034 90.285h-21.133c-2.761 0-5-2.239-5-5v-25.474c0-2.761 2.239-5 5-5h21.133z" fill="#7c8b96"/><path d="m390.588 151.527h-28.769c-2.761 0-5-2.239-5-5v-25.474c0-2.761 2.239-5 5-5h28.769c2.761 0 5 2.239 5 5v25.474c0 2.762-2.238 5-5 5z" fill="#8c9ba6"/><path d="m317.773 151.527h-21.4v-35.474h21.4c2.761 0 5 2.239 5 5v25.474c0 2.762-2.239 5-5 5z" fill="#8c9ba6"/><path d="m456.034 151.527h-21.133c-2.761 0-5-2.239-5-5v-25.474c0-2.761 2.239-5 5-5h21.133z" fill="#7c8b96"/><path d="m390.588 212.769h-28.769c-2.761 0-5-2.239-5-5v-25.474c0-2.761 2.239-5 5-5h28.769c2.761 0 5 2.239 5 5v25.474c0 2.762-2.238 5-5 5z" fill="#8c9ba6"/><path d="m317.773 212.769h-21.4v-35.474h21.4c2.761 0 5 2.239 5 5v25.474c0 2.762-2.239 5-5 5z" fill="#8c9ba6"/><path d="m456.034 212.769h-21.133c-2.761 0-5-2.239-5-5v-25.474c0-2.761 2.239-5 5-5h21.133z" fill="#7c8b96"/><path d="m390.588 274.012h-28.769c-2.761 0-5-2.239-5-5v-25.474c0-2.761 2.239-5 5-5h28.769c2.761 0 5 2.239 5 5v25.474c0 2.761-2.238 5-5 5z" fill="#8c9ba6"/><path d="m317.773 274.012h-21.4v-35.474h21.4c2.761 0 5 2.239 5 5v25.474c0 2.761-2.239 5-5 5z" fill="#8c9ba6"/><path d="m456.034 274.012h-21.133c-2.761 0-5-2.239-5-5v-25.474c0-2.761 2.239-5 5-5h21.133z" fill="#7c8b96"/><path d="m299.445 438.957h-136.131c-2.761 0-5-2.239-5-5v-14.738c0-2.761 2.239-5 5-5h136.131c2.761 0 5 2.239 5 5v14.738c0 2.761-2.239 5-5 5z" fill="#8c9ba6"/></svg>