<?xml version="1.0" encoding="iso-8859-1"?>
<!-- Generator: Adobe Illustrator 19.0.0, SVG Export Plug-In . SVG Version: 6.00 Build 0)  -->
<svg version="1.1" id="Capa_1" xmlns="http://www.w3.org/2000/svg" xmlns:xlink="http://www.w3.org/1999/xlink" x="0px" y="0px"
	 viewBox="0 0 426 426" style="enable-background:new 0 0 426 426;" xml:space="preserve">
<path style="fill:#ED664C;" d="M407.35,181v53.9l-17.2,2.9l-0.1,0.1c-19.7-23.1-49.1-37.7-81.9-37.7c-4.4,0-8.8,0.3-13.1,0.8v-0.1
	c-3.6-44.6-40.9-79.6-86.4-79.6c-47.9,0-86.7,38.8-86.7,86.7c0,45.2,34.6,82.4,78.8,86.3l0.4,0.1c-0.6,4.5-0.9,9-0.9,13.6
	c0,33.5,15.3,63.5,39.3,83.3l-1.7,2.1l-2.3,13.7h-53.9l-6.7-39.9c-19.7-4.1-38.4-11.9-54.4-22.3l-33.2,23.3l-38.4-38.4l23.3-33.2
	c-10.4-16.6-18.1-34.7-22.3-54.4l-39.8-6.7v-53.9l39.9-6.7c4.1-19.7,11.9-38.4,22.3-54.4l-23.3-33.2l38.4-38.4l33.2,23.3
	c16.6-10.4,34.7-18.1,54.4-22.3l6.7-39.9h53.9l6.7,39.9c19.7,4.1,38.4,11.9,54.4,22.3l33.2-23.9l38.4,38.4l-23.2,33.1
	c10.4,16.6,18.1,34.7,22.3,54.4L407.35,181z"/>
<path style="fill:#FDC75B;" d="M390.15,237.8c16.2,18.9,26,43.4,26,70.2c0,59.6-48.3,107.9-107.9,107.9c-26,0-49.9-9.2-68.5-24.6
	c-24-19.8-39.3-49.7-39.3-83.3c0-4.6,0.3-9.2,0.9-13.6c6.1-48.8,45-87.5,93.9-93.4c4.3-0.6,8.7-0.8,13.1-0.8
	C341.05,200.1,370.45,214.8,390.15,237.8z"/>
<path d="M408.85,244.8c4.8-0.8,8.3-5,8.3-9.9V181c0-4.9-3.4-9-8.2-9.9l-33.3-5.6c-3.9-15.5-10.2-30.7-18.6-45.3l19.6-27.9
	c2.8-4,2.3-9.4-1.1-12.8l-38.4-38.3c-3.5-3.5-8.9-3.9-12.9-1l-27.8,20c-14-8.2-29.4-14.5-45.3-18.5l-5.6-33.4
	c-0.8-4.8-5-8.3-9.9-8.3h-53.9c-4.9,0-9,3.5-9.9,8.3l-5.6,33.4c-15.5,3.9-30.7,10.2-45.3,18.6l-27.8-19.7c-4-2.8-9.4-2.3-12.8,1.1
	l-38.4,38.4c-3.4,3.4-3.9,8.8-1.1,12.8l19.5,27.8c-8.2,14-14.5,29.4-18.6,45.3l-33.4,5.6c-4.8,0.8-8.3,5-8.3,9.9v53.9
	c0,4.9,3.5,9,8.3,9.9l33.4,5.6c3.9,15.5,10.2,30.7,18.6,45.3l-19.6,27.9c-2.8,4-2.3,9.4,1.1,12.8l38.4,38.4
	c3.4,3.4,8.8,3.9,12.8,1.1l27.8-19.5c14,8.2,29.4,14.5,45.3,18.6l5.6,33.3c0.8,4.8,5,8.2,9.9,8.2h53.9c4.9,0,9-3.4,9.9-8.2l0.1-0.8
	c18.7,11.7,40.4,18,62.5,18c65,0,117.9-52.9,117.9-117.9c0-22.4-6.5-44.2-18.4-63L408.85,244.8z M190.25,396.9l-5.3-31.5
	c-0.7-4.1-3.8-7.2-7.8-8.1c-18.1-3.8-35.8-11-51.1-20.9c-3.4-2.2-7.8-2.1-11.2,0.2l-26.3,18.5l-26.5-26.5l18.5-26.3
	c2.3-3.3,2.4-7.6,0.3-11.1c-10.2-16.3-17.3-33.6-21-51.2c-0.8-4-4.1-7.1-8.1-7.8l-31.6-5.2v-37l31.6-5.3c4.1-0.7,7.3-3.8,8.1-7.8
	c3.8-18.1,11-35.8,20.9-51.1c2.2-3.4,2.1-7.8-0.2-11.2l-18.5-26.3l26.5-26.5l26.3,18.5c3.3,2.3,7.6,2.4,11.1,0.3
	c16.3-10.2,33.6-17.3,51.2-21c4-0.8,7.1-4.1,7.8-8.1l5.3-31.6h37l5.3,31.6c0.7,4.1,3.8,7.3,7.8,8.1c18.1,3.8,35.8,11,51.1,20.9
	c3.5,2.2,7.9,2.1,11.3-0.3l26.3-18.9l26.4,26.4l-18.5,26.3c-2.3,3.3-2.4,7.6-0.3,11.1c10.2,16.3,17.3,33.6,21,51.2
	c0.8,4,4,7.1,8,7.8l31.5,5.3v37l-3.4,0.6c-22.2-23.5-53-36.9-85.6-36.9c-1.5,0-2.9,0-4.4,0.1c-3.8-20.3-14-38.9-29.3-53.2
	c-17.9-16.6-41.3-25.8-65.7-25.8c-53.3,0-96.7,43.4-96.7,96.7c0,24.3,9,47.5,25.5,65.4c14.2,15.4,32.7,25.7,53,29.6
	c-0.1,1.7-0.1,3.4-0.1,5.1c0,32.9,13.5,63.8,37.4,86l-0.5,2.9L190.25,396.9L190.25,396.9z M193.05,283
	c-15.6-3.2-29.9-11.3-40.8-23.2c-13-14.2-20.2-32.6-20.2-51.9c0-42.3,34.4-76.7,76.7-76.7c19.4,0,37.9,7.3,52.2,20.4
	c11.9,11,19.9,25.3,23,41c-22.1,4.7-42.7,15.7-58.8,31.7C209.05,240.5,197.85,261,193.05,283z M308.25,405.9
	c-22.6,0-44.7-7.9-62.2-22.4c-22.7-18.6-35.7-46.2-35.7-75.6c0-4.1,0.3-8.2,0.8-12.4c5.6-44.5,40.6-79.4,85.2-84.7h0.1
	c3.7-0.5,7.7-0.7,11.8-0.7c28.6,0,55.7,12.5,74.3,34.2l0,0c15.2,17.7,23.6,40.3,23.6,63.6C406.15,362,362.25,405.9,308.25,405.9z"/>
<path d="M363.55,301.9h-41.4v-42.3c0-5.5-4.5-10-10-10s-10,4.5-10,10v42.3h-42.3c-5.5,0-10,4.5-10,10s4.5,10,10,10h42.3v41.4
	c0,5.5,4.5,10,10,10s10-4.5,10-10v-41.4h41.4c5.5,0,10-4.5,10-10S369.05,301.9,363.55,301.9z"/>
<g>
</g>
<g>
</g>
<g>
</g>
<g>
</g>
<g>
</g>
<g>
</g>
<g>
</g>
<g>
</g>
<g>
</g>
<g>
</g>
<g>
</g>
<g>
</g>
<g>
</g>
<g>
</g>
<g>
</g>
</svg>
