<svg height="457pt" viewBox="-54 0 457 457.14286" width="457pt" xmlns="http://www.w3.org/2000/svg"><path d="m340.550781 113.738281v334.261719h-331.335937v-438.855469h226.742187v104.59375zm0 0" fill="#e7e4f3"/><path d="m340.554688 457.144531h-331.339844c-5.054688 0-9.1445315-4.09375-9.1445315-9.144531v-438.855469c0-5.050781 4.0898435-9.144531 9.1445315-9.144531h226.742187c5.050781 0 9.140625 4.09375 9.140625 9.144531v95.449219h95.457032c5.050781 0 9.140624 4.09375 9.140624 9.144531v334.261719c0 5.050781-4.089843 9.144531-9.140624 9.144531zm-322.199219-18.289062h313.054687v-315.976563h-95.453125c-5.054687 0-9.144531-4.09375-9.144531-9.140625v-95.453125h-208.457031zm0 0" fill="#2a3d4f"/><path d="m340.550781 113.738281h-104.59375v-104.59375zm0 0" fill="#4b6981"/><g fill="#2a3d4f"><path d="m340.554688 122.878906h-104.597657c-5.054687 0-9.144531-4.09375-9.144531-9.140625v-104.59375c0-3.699219 2.222656-7.03125 5.644531-8.449219 3.425781-1.40625 7.347657-.632812 9.960938 1.984376l104.601562 104.59375c2.613281 2.613281 3.398438 6.542968 1.980469 9.964843-1.410156 3.414063-4.75 5.640625-8.445312 5.640625zm-95.457032-18.285156h73.382813l-73.382813-73.378906zm0 0"/><path d="m200.257812 342.273438c-23.1875 0-44.964843-9.03125-61.320312-25.433594-33.820312-33.832032-33.820312-88.871094.007812-122.695313 16.347657-16.394531 38.125-25.425781 61.3125-25.425781s44.964844 9.03125 61.324219 25.433594c33.820313 33.820312 33.820313 88.867187-.011719 122.695312-16.347656 16.394532-38.125 25.425782-61.3125 25.425782zm0-155.269532c-18.292968 0-35.472656 7.125-48.375 20.058594-26.703124 26.710938-26.703124 70.15625-.007812 96.855469 0 0 .007812.007812.007812.011719 12.902344 12.933593 30.082032 20.058593 48.375 20.058593 18.296876 0 35.472657-7.125 48.375-20.058593 26.707032-26.710938 26.707032-70.15625.011719-96.859376-12.914062-12.941406-30.089843-20.066406-48.386719-20.066406zm0 0"/><path d="m71.917969 393.019531c-2.335938 0-4.675781-.894531-6.460938-2.679687-3.574219-3.570313-3.574219-9.359375 0-12.929688l73.488281-73.492187c3.574219-3.570313 9.359376-3.570313 12.929688 0 3.570312 3.574219 3.570312 9.359375 0 12.929687l-73.492188 73.492188c-1.785156 1.785156-4.125 2.679687-6.464843 2.679687zm0 0"/></g></svg>