<svg height="496pt" viewBox="0 0 496 496" width="496pt" xmlns="http://www.w3.org/2000/svg"><g fill="#f0bc5e"><path d="m160 360h176v48h-176zm0 0"/><path d="m408 304h-48c-13.230469 0-24-10.769531-24-24v-32c0-13.230469 10.769531-24 24-24h48c13.230469 0 24 10.769531 24 24v32c0 13.230469-10.769531 24-24 24zm0 0"/><path d="m136 304h-48c-13.230469 0-24-10.769531-24-24v-32c0-13.230469 10.769531-24 24-24h48c13.230469 0 24 10.769531 24 24v32c0 13.230469-10.769531 24-24 24zm0 0"/></g><path d="m160 256h176v16h-176zm0 0"/><path d="m96 256h32v16h-32zm0 0"/><path d="m368 256h32v16h-32zm0 0"/><path d="m496 200c0-30.878906-25.128906-56-56-56h-25.472656c.898437-2.511719 1.472656-5.183594 1.472656-8v-32c0-57.34375-46.65625-104-104-104h-128c-57.34375 0-104 46.65625-104 104v32c0 2.816406.574219 5.488281 1.472656 8h-25.472656c-30.871094 0-56 25.121094-56 56v72h16v184c0 22.054688 17.945312 40 40 40h384c22.054688 0 40-17.945312 40-40v-184h16zm-400-64v-32c0-48.519531 39.480469-88 88-88h128c48.519531 0 88 39.480469 88 88v32c0 4.40625-3.585938 8-8 8h-86.527344c3.3125-9.289062 12.113282-16 22.527344-16h56v-16c0-44.113281-35.886719-80-80-80h-112c-44.113281 0-80 35.886719-80 80v16h56c10.414062 0 19.214844 6.710938 22.527344 16h-86.527344c-4.414062 0-8-3.59375-8-8zm111.191406 8c-3.71875-18.230469-19.871094-32-39.191406-32h-40c0-35.289062 28.710938-64 64-64h112c35.289062 0 64 28.710938 64 64h-40c-19.3125 0-35.472656 13.769531-39.191406 32zm272.808594 112h-48v16h32v184c0 13.230469-10.769531 24-24 24h-384c-13.230469 0-24-10.769531-24-24v-184h32v-16h-48v-56c0-22.054688 17.945312-40 40-40h384c22.054688 0 40 17.945312 40 40zm0 0"/><path d="m381.128906 320c-23.808594 0-45.976562 12.40625-57.839844 32h-150.570312c-11.863281-19.59375-34.039062-32-57.839844-32-18.519531 0-35.78125 7.183594-48.582031 20.222656l-2.296875 2.335938v25.441406h40.464844l6.832031 16-6.832031 16h-40.464844v25.441406l2.289062 2.335938c12.808594 13.039062 30.0625 20.222656 48.582032 20.222656 23.808594 0 45.976562-12.40625 57.839844-32h150.5625c11.863281 19.59375 34.039062 32 57.839843 32 18.519531 0 35.78125-7.183594 48.582031-20.222656l2.304688-2.335938v-25.441406h-40.464844l-6.832031-16 6.832031-16h40.464844v-25.441406l-2.289062-2.335938c-12.808594-13.039062-30.0625-20.222656-48.582032-20.222656zm34.871094 32h-35.023438l-13.679687 32 13.679687 32h35.023438v2.761719c-9.496094 8.566406-21.761719 13.238281-34.871094 13.238281-19.542968 0-37.59375-10.824219-45.96875-27.574219l-2.214844-4.425781h-28.945312v-16h-16v16h-48v-16h-16v16h-48v-16h-16v21.832031c-8.671875 15.921875-26.152344 26.167969-45.128906 26.167969-13.117188 0-25.382813-4.671875-34.871094-13.238281v-2.761719h35.023438l13.679687-32-13.679687-32h-35.023438v-2.761719c9.496094-8.566406 21.761719-13.238281 34.871094-13.238281 19.542968 0 37.59375 10.824219 45.96875 27.574219l2.214844 4.425781h28.945312v16h16v-16h48v16h16v-16h48v16h16v-21.832031c8.671875-15.921875 26.152344-26.167969 45.128906-26.167969 13.117188 0 25.382813 4.671875 34.871094 13.238281zm0 0"/></svg>