<svg id="Capa_1" enable-background="new 0 0 512 512" height="512" viewBox="0 0 512 512" width="512" xmlns="http://www.w3.org/2000/svg"><path d="m430.372 512h-348.746c-12.75 0-23.086-10.336-23.086-23.086v-410.712c0-12.75 10.336-23.086 23.086-23.086h348.746c12.75 0 23.086 10.336 23.086 23.086v410.712c-.001 12.75-10.336 23.086-23.086 23.086z" fill="#d77f4a"/><path d="m453.46 78.204v410.715c0 12.748-10.333 23.081-23.092 23.081h-23.226c12.759 0 23.092-10.333 23.092-23.081v-410.715c0-12.748-10.333-23.092-23.092-23.092h23.226c12.759 0 23.092 10.343 23.092 23.092z" fill="#c86d36"/><path d="m412.345 405.771v-350.654h-312.692v398.677c0 9.164 7.429 16.592 16.592 16.592h227.59z" fill="#f3eae6"/><path d="m412.345 405.771h-51.921c-9.162 0-16.589 7.427-16.589 16.589v48.027z" fill="#cdbfba"/><path d="m145.649 235.05c0 22.701 18.403 41.104 41.104 41.104h31.674c22.701 0 41.104-18.403 41.104-41.104v-.405-25.295-31.999h-113.882v31.999z" fill="#f6a96c"/><path d="m259.53 177.35v57.704c0 22.699-18.396 41.107-41.107 41.107h-17.927c22.699 0 41.107-18.408 41.107-41.107v-57.704z" fill="#ea9b58"/><path d="m151.697 128.885 5.704 2.99c4.546 2.383 9.972 2.383 14.518 0l4.445-2.33c4.546-2.383 9.972-2.383 14.518 0l4.445 2.33c4.546 2.383 9.972 2.383 14.518 0l4.447-2.331c4.546-2.382 9.971-2.383 14.517 0l4.45 2.332c4.545 2.382 9.97 2.382 14.516 0l5.709-2.992c2.728-1.43 5.999.549 5.999 3.629v80.837c0 1.222-1.487 1.815-2.332.932-4.195-4.379-12.747-14.648-14.577-27.202-.294-2.019-2.19-3.309-4.183-2.87-2.597.572-5.607 1.231-5.928 1.286-8.278 1.41-16.935 2.256-25.628 2.346l-4.245-.039-4.245.039c-8.693-.09-17.349-.936-25.628-2.346-.321-.055-3.333-.714-5.93-1.286-1.985-.437-3.893.917-4.189 2.927-1.848 12.532-10.386 22.779-14.573 27.149-.844.881-2.328.284-2.328-.936v-80.836c0-3.08 3.271-5.059 6-3.629z" fill="#5a5a5a"/><path d="m259.485 132.51v80.839c0 1.23-1.486 1.822-2.336.939-4.191-4.381-12.741-14.652-14.574-27.203-.112-.782-.469-1.453-.972-1.956v-51.501c2.124-.145 4.225-.727 6.169-1.755l5.711-2.984c2.727-1.431 6.002.548 6.002 3.621z" fill="#444"/><path d="m180.61 240.586c-4.142 0-7.5-3.358-7.5-7.5v-8.196c0-4.142 3.358-7.5 7.5-7.5s7.5 3.358 7.5 7.5v8.196c0 4.143-3.358 7.5-7.5 7.5z" fill="#5a5a5a"/><path d="m224.57 240.586c-4.142 0-7.5-3.358-7.5-7.5v-8.196c0-4.142 3.358-7.5 7.5-7.5s7.5 3.358 7.5 7.5v8.196c0 4.143-3.358 7.5-7.5 7.5z" fill="#5a5a5a"/><path d="m301.079 35.807c-2.696 0-5.094-1.825-5.696-4.453-4.112-17.957-20.18-31.354-39.384-31.354-19.204 0-35.272 13.397-39.385 31.354-.602 2.628-3 4.453-5.696 4.453h-32.194c-3.242 0-5.869 2.628-5.869 5.869v32.933c0 3.242 2.628 5.869 5.869 5.869h154.55c3.242 0 5.869-2.628 5.869-5.869v-32.933c0-3.242-2.628-5.869-5.869-5.869z" fill="#9c9c9c"/><path d="m339.147 41.672v32.939c0 3.241-2.632 5.863-5.874 5.863h-154.55c-3.241 0-5.874-2.622-5.874-5.863v-11.168h142.245c3.241 0 5.874-2.622 5.874-5.863v-21.77h12.305c3.242-.001 5.874 2.621 5.874 5.862z" fill="#838383"/><path d="m301.585 156.872h63.395c2.615 0 4.734 2.115 4.734 4.724v29.773c0 2.609-2.12 4.724-4.734 4.724h-63.395c-2.615 0-4.734-2.115-4.734-4.724v-29.773c0-2.609 2.12-4.724 4.734-4.724z" fill="#8ac9fe"/><g fill="#cdbfba"><path d="m369.715 233.864h-72.864c-4.143 0-7.5-3.358-7.5-7.5s3.357-7.5 7.5-7.5h72.864c4.143 0 7.5 3.358 7.5 7.5s-3.358 7.5-7.5 7.5z"/><path d="m369.715 263.585h-72.864c-4.143 0-7.5-3.358-7.5-7.5s3.357-7.5 7.5-7.5h72.864c4.143 0 7.5 3.358 7.5 7.5s-3.358 7.5-7.5 7.5z"/><path d="m369.715 318.687h-227.432c-4.142 0-7.5-3.358-7.5-7.5s3.358-7.5 7.5-7.5h227.432c4.143 0 7.5 3.358 7.5 7.5s-3.358 7.5-7.5 7.5z"/><path d="m369.715 348.53h-227.432c-4.142 0-7.5-3.358-7.5-7.5s3.358-7.5 7.5-7.5h227.432c4.143 0 7.5 3.358 7.5 7.5s-3.358 7.5-7.5 7.5z"/><path d="m369.715 378.374h-227.432c-4.142 0-7.5-3.358-7.5-7.5s3.358-7.5 7.5-7.5h227.432c4.143 0 7.5 3.358 7.5 7.5s-3.358 7.5-7.5 7.5z"/><path d="m290.387 408.217h-148.104c-4.142 0-7.5-3.358-7.5-7.5s3.358-7.5 7.5-7.5h148.104c4.143 0 7.5 3.358 7.5 7.5s-3.358 7.5-7.5 7.5z"/></g></svg>