<svg height="512pt" viewBox="0 -62 512.001 512" width="512pt" xmlns="http://www.w3.org/2000/svg"><g fill="#e4eaf8"><path d="m488.980469 32.214844h-192.875c2.046875 4.832031 3.179687 10.148437 3.179687 15.730468 0 5.578126-1.132812 10.894532-3.179687 15.726563h192.875c8.6875 0 15.730469-7.042969 15.730469-15.726563 0-8.6875-7.042969-15.730468-15.730469-15.730468zm0 0"/><path d="m488.980469 178.480469h-97.148438c2.042969 4.835937 3.179688 10.152343 3.179688 15.730469 0 5.578124-1.132813 10.894531-3.179688 15.730468h97.148438c8.6875 0 15.730469-7.042968 15.730469-15.730468-.003907-8.6875-7.042969-15.730469-15.730469-15.730469zm0 0"/><path d="m488.980469 324.75h-298.527344c2.046875 4.835938 3.175781 10.148438 3.175781 15.730469 0 5.578125-1.128906 10.894531-3.175781 15.726562h298.527344c8.6875 0 15.730469-7.039062 15.730469-15.726562-.003907-8.6875-7.042969-15.730469-15.730469-15.730469zm0 0"/></g><path d="m228.546875 47.941406c0-5.578125 1.132813-10.894531 3.179687-15.726562h-208.289062c-8.6875 0-15.726562 7.042968-15.726562 15.726562 0 8.6875 7.039062 15.730469 15.726562 15.730469h208.285156c-2.042968-4.832031-3.175781-10.148437-3.175781-15.730469zm0 0" fill="#ff6b6b"/><path d="m324.269531 194.210938c0-5.578126 1.132813-10.894532 3.179688-15.730469h-304.011719c-8.6875 0-15.726562 7.042969-15.726562 15.730469s7.039062 15.730468 15.726562 15.730468h304.011719c-2.046875-4.835937-3.179688-10.152344-3.179688-15.730468zm0 0" fill="#feca57"/><path d="m122.890625 340.480469c0-5.582031 1.132813-10.894531 3.179687-15.730469h-102.632812c-8.6875 0-15.726562 7.042969-15.726562 15.730469s7.039062 15.726562 15.726562 15.726562h102.632812c-2.046874-4.832031-3.179687-10.148437-3.179687-15.726562zm0 0" fill="#1dd1a1"/><path d="m488.980469 44.171875h-189.878907c.117188 1.242187.183594 2.5.183594 3.769531 0 5.582032-1.132812 10.894532-3.179687 15.730469h192.875c8.6875 0 15.730469-7.042969 15.730469-15.730469 0-3.683594-1.28125-7.070312-3.402344-9.75-2.882813 3.636719-7.328125 5.980469-12.328125 5.980469zm0 0" fill="#ccd2db"/><path d="m488.980469 190.4375h-94.152344c.117187 1.242188.183594 2.5.183594 3.773438 0 5.578124-1.132813 10.894531-3.179688 15.726562h97.148438c8.6875 0 15.730469-7.039062 15.730469-15.726562 0-3.6875-1.277344-7.070313-3.402344-9.75-2.882813 3.636718-7.328125 5.976562-12.328125 5.976562zm0 0" fill="#ccd2db"/><path d="m488.980469 336.707031h-295.53125c.117187 1.242188.183593 2.5.183593 3.769531 0 5.582032-1.132812 10.898438-3.179687 15.730469h298.527344c8.6875 0 15.730469-7.042969 15.730469-15.730469 0-3.683593-1.277344-7.066406-3.402344-9.75-2.882813 3.640626-7.328125 5.980469-12.328125 5.980469zm0 0" fill="#ccd2db"/><path d="m228.726562 44.171875h-205.289062c-5 0-9.445312-2.34375-12.324219-5.980469-2.125 2.679688-3.402343 6.066406-3.402343 9.75 0 8.6875 7.042968 15.730469 15.726562 15.730469h208.289062c-2.046874-4.832031-3.179687-10.148437-3.179687-15.730469 0-1.269531.066406-2.527344.179687-3.769531zm0 0" fill="#ee5253"/><path d="m324.453125 190.4375h-301.015625c-5 0-9.445312-2.339844-12.324219-5.976562-2.125 2.679687-3.402343 6.0625-3.402343 9.75 0 8.6875 7.042968 15.726562 15.726562 15.726562h304.011719c-2.046875-4.832031-3.179688-10.148438-3.179688-15.726562 0-1.273438.066407-2.53125.183594-3.773438zm0 0" fill="#f4b537"/><path d="m123.074219 336.707031h-99.636719c-5 0-9.445312-2.34375-12.324219-5.976562-2.125 2.679687-3.402343 6.0625-3.402343 9.75 0 8.6875 7.042968 15.726562 15.726562 15.726562h102.632812c-2.046874-4.832031-3.179687-10.148437-3.179687-15.726562 0-1.273438.066406-2.53125.183594-3.773438zm0 0" fill="#15ba8b"/><path d="m304.285156 47.941406c0 22.296875-18.074218 40.371094-40.371094 40.371094-22.292968 0-40.367187-18.074219-40.367187-40.371094 0-22.292968 18.074219-40.367187 40.367187-40.367187 22.296876 0 40.371094 18.074219 40.371094 40.367187zm0 0" fill="#576574"/><path d="m253.546875 47.941406c0-16.992187 10.503906-31.523437 25.367187-37.476562-4.636718-1.859375-9.695312-2.890625-15-2.890625-22.292968 0-40.367187 18.074219-40.367187 40.367187 0 22.296875 18.074219 40.371094 40.367187 40.371094 5.304688 0 10.363282-1.035156 15-2.890625-14.863281-5.957031-25.367187-20.488281-25.367187-37.480469zm0 0" fill="#3e4b5a"/><path d="m279.644531 47.941406c0 8.6875-7.042969 15.730469-15.730469 15.730469s-15.726562-7.042969-15.726562-15.730469 7.039062-15.726562 15.726562-15.726562 15.730469 7.039062 15.730469 15.726562zm0 0" fill="#3e4b5a"/><path d="m273.917969 35.800781c-9.652344-7.957031-24.28125-1.90625-25.632813 10.355469-1.042968 9.488281 6.355469 17.515625 15.628906 17.515625 3.800782 0 7.285157-1.347656 10.003907-3.589844-7.640625-6.296875-7.640625-17.980469 0-24.28125zm0 0" fill="#303f49"/><path d="m400.011719 194.207031c0 22.296875-18.074219 40.371094-40.371094 40.371094s-40.371094-18.074219-40.371094-40.371094c0-22.292969 18.074219-40.367187 40.371094-40.367187s40.371094 18.074218 40.371094 40.367187zm0 0" fill="#576574"/><path d="m349.273438 194.207031c0-16.992187 10.503906-31.523437 25.367187-37.476562-4.640625-1.859375-9.699219-2.890625-15-2.890625-22.296875 0-40.371094 18.074218-40.371094 40.367187 0 22.296875 18.074219 40.371094 40.371094 40.371094 5.300781 0 10.359375-1.035156 15-2.890625-14.863281-5.957031-25.367187-20.488281-25.367187-37.480469zm0 0" fill="#3e4b5a"/><path d="m375.371094 194.207031c0 8.6875-7.042969 15.730469-15.730469 15.730469s-15.730469-7.042969-15.730469-15.730469 7.042969-15.726562 15.730469-15.726562 15.730469 7.039062 15.730469 15.726562zm0 0" fill="#3e4b5a"/><path d="m369.640625 182.066406c-9.648437-7.957031-24.277344-1.90625-25.628906 10.355469-1.046875 9.484375 6.351562 17.515625 15.628906 17.515625 3.796875 0 7.28125-1.347656 10-3.589844-7.636719-6.300781-7.636719-17.980468 0-24.28125zm0 0" fill="#303f49"/><path d="m198.632812 340.472656c0 22.296875-18.074218 40.371094-40.371093 40.371094s-40.371094-18.074219-40.371094-40.371094 18.074219-40.367187 40.371094-40.367187 40.371093 18.070312 40.371093 40.367187zm0 0" fill="#576574"/><path d="m147.894531 340.472656c0-16.992187 10.503907-31.523437 25.367188-37.476562-4.640625-1.859375-9.699219-2.890625-15-2.890625-22.296875 0-40.371094 18.074219-40.371094 40.367187 0 22.296875 18.074219 40.371094 40.371094 40.371094 5.300781 0 10.359375-1.035156 15-2.890625-14.863281-5.957031-25.367188-20.488281-25.367188-37.480469zm0 0" fill="#3e4b5a"/><path d="m173.992188 340.472656c0 8.6875-7.042969 15.730469-15.730469 15.730469s-15.730469-7.042969-15.730469-15.730469 7.042969-15.726562 15.730469-15.726562 15.730469 7.039062 15.730469 15.726562zm0 0" fill="#3e4b5a"/><path d="m168.261719 328.332031c-9.648438-7.957031-24.277344-1.90625-25.628907 10.355469-1.046874 9.484375 6.351563 17.511719 15.628907 17.511719 3.796875 0 7.28125-1.34375 10-3.585938-7.636719-6.300781-7.636719-17.984375 0-24.28125zm0 0" fill="#303f49"/><path d="m263.703125 24.640625c-12.808594 0-23.226563 10.421875-23.226563 23.230469s10.417969 23.230468 23.226563 23.230468c12.8125 0 23.230469-10.421874 23.230469-23.230468s-10.417969-23.230469-23.230469-23.230469zm0 31.457031c-4.535156 0-8.226563-3.691406-8.226563-8.226562 0-4.539063 3.691407-8.230469 8.226563-8.230469 4.539063 0 8.230469 3.691406 8.230469 8.230469 0 4.535156-3.691406 8.226562-8.230469 8.226562zm0 0"/><path d="m359.429688 170.910156c-12.808594 0-23.230469 10.421875-23.230469 23.230469s10.421875 23.226563 23.230469 23.226563c12.808593 0 23.230468-10.417969 23.230468-23.226563s-10.421875-23.230469-23.230468-23.230469zm0 31.457032c-4.539063 0-8.226563-3.691407-8.226563-8.230469 0-4.535157 3.6875-8.226563 8.226563-8.226563 4.539062 0 8.230468 3.691406 8.230468 8.226563 0 4.539062-3.691406 8.230469-8.230468 8.230469zm0 0"/><path d="m488.769531 170.910156h-87.503906c-8.183594-14.683594-23.863281-24.640625-41.835937-24.640625-17.972657 0-33.652344 9.957031-41.835938 24.640625h-294.363281c-12.808594 0-23.230469 10.421875-23.230469 23.226563 0 12.808593 10.421875 23.230469 23.230469 23.230469h294.363281c8.183594 14.683593 23.867188 24.640624 41.835938 24.640624s33.652343-9.957031 41.835937-24.640624h87.503906c12.808594 0 23.230469-10.421876 23.230469-23.230469 0-12.808594-10.421875-23.226563-23.230469-23.226563zm-176.507812 31.457032h-289.03125c-4.539063 0-8.230469-3.691407-8.230469-8.230469 0-4.535157 3.691406-8.226563 8.230469-8.226563h289.03125c-.871094 5.039063-.964844 10.859375 0 16.457032zm47.167969 24.640624c-18.125 0-32.867188-14.746093-32.867188-32.871093s14.742188-32.867188 32.867188-32.867188 32.871093 14.742188 32.871093 32.867188c0 18.121093-14.738281 32.871093-32.871093 32.871093zm129.339843-24.640624h-82.171875c.90625-5.234376.945313-10.988282 0-16.457032h82.171875c4.539063 0 8.230469 3.691406 8.230469 8.230469 0 4.535156-3.691406 8.226563-8.230469 8.226563zm0 0"/><path d="m134.820312 340.40625c0 12.808594 10.421876 23.230469 23.230469 23.230469 12.808594 0 23.230469-10.421875 23.230469-23.230469s-10.421875-23.230469-23.230469-23.230469c-12.808593 0-23.230469 10.421875-23.230469 23.230469zm23.230469-8.226562c4.539063 0 8.230469 3.691406 8.230469 8.226562 0 4.539062-3.691406 8.230469-8.230469 8.230469-4.539062 0-8.230469-3.691407-8.230469-8.230469 0-4.535156 3.695313-8.226562 8.230469-8.226562zm0 0"/><path d="m488.769531 317.175781h-288.90625c-4.828125-8.671875-12.3125-15.839843-21.625-20.175781-3.753906-1.746094-8.21875-.121094-9.96875 3.632812-1.746093 3.753907-.121093 8.214844 3.632813 9.964844 13.75 6.40625 20.050781 21.007813 18.976562 31.503906-.886718 17.339844-15.269531 31.175782-32.828125 31.175782-23.625 0-39.335937-24.199219-30.28125-45.683594 2.992188-7.09375 8.4375-13.023438 15.644531-16.617188 3.707032-1.847656 5.214844-6.351562 3.367188-10.058593s-6.347656-5.214844-10.0625-3.367188c-8.90625 4.441407-15.96875 11.328125-20.566406 19.625h-92.921875c-12.808594 0-23.230469 10.421875-23.230469 23.230469s10.421875 23.230469 23.230469 23.230469h92.984375c8.183594 14.683593 23.867187 24.640625 41.835937 24.640625 17.972657 0 33.652344-9.957032 41.835938-24.640625h288.882812c12.808594 0 23.230469-10.421875 23.230469-23.230469s-10.421875-23.230469-23.230469-23.230469zm-377.886719 31.457031h-87.652343c-4.539063 0-8.230469-3.6875-8.230469-8.226562s3.691406-8.230469 8.230469-8.230469h87.652343c-.898437 5.21875-.96875 10.847657 0 16.457031zm377.886719 0h-283.550781c.859375-4.945312.980469-10.789062 0-16.457031h283.550781c4.539063 0 8.230469 3.691407 8.230469 8.230469s-3.691406 8.226562-8.230469 8.226562zm0 0"/><path d="m488.769531 24.640625h-183.226562c-8.183594-14.679687-23.867188-24.640625-41.835938-24.640625-17.972656 0-33.652343 9.960938-41.835937 24.640625h-198.640625c-12.808594 0-23.230469 10.421875-23.230469 23.230469s10.421875 23.230468 23.230469 23.230468h198.640625c8.183594 14.679688 23.863281 24.640626 41.835937 24.640626 17.96875 0 33.652344-9.960938 41.835938-24.640626h61.207031c4.140625 0 7.5-3.359374 7.5-7.503906 0-4.140625-3.359375-7.5-7.5-7.5h-55.875c.957031-5.542968.878906-11.363281 0-16.453125h177.898438c4.535156 0 8.226562 3.691407 8.226562 8.226563 0 4.539062-3.691406 8.230468-8.226562 8.230468h-87.023438c-4.144531 0-7.5 3.355469-7.5 7.5 0 4.140626 3.355469 7.5 7.5 7.5h87.023438c12.808593 0 23.226562-10.421874 23.226562-23.230468s-10.421875-23.230469-23.230469-23.230469zm-272.230469 31.457031h-193.308593c-4.539063 0-8.230469-3.691406-8.230469-8.226562 0-4.539063 3.691406-8.230469 8.230469-8.230469h193.308593c-.898437 5.203125-.941406 11.023437 0 16.457031zm47.164063 24.644532c-18.121094 0-32.867187-14.746094-32.867187-32.871094s14.746093-32.871094 32.867187-32.871094c18.125 0 32.871094 14.746094 32.871094 32.871094s-14.746094 32.871094-32.871094 32.871094zm0 0"/></svg>