<?xml version="1.0" encoding="UTF-8" standalone="no"?>
<svg
   xmlns:dc="http://purl.org/dc/elements/1.1/"
   xmlns:cc="http://creativecommons.org/ns#"
   xmlns:rdf="http://www.w3.org/1999/02/22-rdf-syntax-ns#"
   xmlns:svg="http://www.w3.org/2000/svg"
   xmlns="http://www.w3.org/2000/svg"
   height="512"
   width="384"
   xml:space="preserve"
   viewBox="0 0 384 512"
   y="0px"
   x="0px"
   id="Capa_1"
   version="1.1"><metadata
   id="metadata89"><rdf:RDF><cc:Work
       rdf:about=""><dc:format>image/svg+xml</dc:format><dc:type
         rdf:resource="http://purl.org/dc/dcmitype/StillImage" /></cc:Work></rdf:RDF></metadata><defs
   id="defs87" />
<path
   id="path2"
   d="M 170.667,0 C 76.563,0 0,76.563 0,170.667 c 0,28.25 7.063,56.26 20.49,81.104 L 161.333,506.5 c 1.875,3.396 5.448,5.5 9.333,5.5 3.885,0 7.458,-2.104 9.333,-5.5 L 320.895,251.687 c 13.375,-24.76 20.438,-52.771 20.438,-81.021 C 341.333,76.563 264.771,0 170.667,0 Z"
   style="fill:#303c42" />
<path
   id="path4"
   d="M 302.177,241.448 170.667,479.292 39.209,241.542 C 27.511,219.896 21.334,195.386 21.334,170.667 21.334,88.323 88.324,21.334 170.667,21.334 253.01,21.334 320,88.323 320,170.667 c 0,24.718 -6.177,49.229 -17.823,70.781 z"
   style="fill:#1e88e5" />
<circle
   id="circle6"
   r="85.333"
   cy="170.66701"
   cx="170.66701"
   style="fill:#303c42" />
<circle
   id="circle8"
   r="64"
   cy="170.66701"
   cx="170.66701"
   style="fill:#ffffff" />
<path
   id="path10"
   d="m 128,192 c 0,-35.292 28.708,-64 64,-64 12.173,0 23.445,3.599 33.145,9.522 -11.249,-18.419 -31.359,-30.855 -54.478,-30.855 -35.292,0 -64,28.708 -64,64 0,23.118 12.438,43.228 30.857,54.477 C 131.6,215.444 128,204.173 128,192 Z"
   style="opacity:0.1;enable-background:new" />
<linearGradient
   gradientTransform="matrix(21.3333,0,0,-21.3333,932.3334,13791.667)"
   y2="632.52118"
   x2="-29.7428"
   y1="638.35938"
   x1="-35.580101"
   gradientUnits="userSpaceOnUse"
   id="SVGID_1_">
	<stop
   id="stop12"
   style="stop-color:#000000;stop-opacity:0.1"
   offset="0" />
	<stop
   id="stop14"
   style="stop-color:#000000;stop-opacity:0"
   offset="1" />
</linearGradient>
<path
   id="path17"
   d="m 236.615,116.591 -0.29,0.241 C 248.428,131.565 256,150.156 256,170.667 256,217.719 217.719,256 170.667,256 c -22.178,0 -42.228,-8.714 -57.418,-22.634 l 124.538,124.538 64.391,-116.456 c 7.421,-13.733 12.346,-28.725 15.143,-44.15 z"
   style="fill:url(#SVGID_1_)" />
<path
   id="path19"
   d="m 380.875,211.125 -37.333,-37.333 c -2,-2 -4.708,-3.125 -7.542,-3.125 H 197.333 c -14.708,0 -26.667,11.958 -26.667,26.667 v 160 c 0,14.708 11.958,26.667 26.667,26.667 h 160 C 372.042,384 384,372.042 384,357.333 V 218.667 c 0,-2.834 -1.125,-5.542 -3.125,-7.542 z"
   style="fill:#303c42" />
<g
   transform="translate(-64)"
   id="g25">
	<path
   id="path21"
   d="M 298.667,192 H 384 v 37.688 c 0,2.938 -2.396,5.333 -5.333,5.333 H 304 c -2.938,0 -5.333,-2.396 -5.333,-5.333 z"
   style="fill:#f2f2f2" />
	<rect
   id="rect23"
   height="64"
   width="85.333"
   style="fill:#f2f2f2"
   y="298.66699"
   x="298.66699" />
</g>
<path
   id="path27"
   d="m 362.667,357.333 c 0,2.938 -2.396,5.333 -5.333,5.333 h -16 V 288 c 0,-5.896 -4.771,-10.667 -10.667,-10.667 H 224 c -5.896,0 -10.667,4.771 -10.667,10.667 v 74.667 h -16 c -2.938,0 -5.333,-2.396 -5.333,-5.333 v -160 c 0,-2.938 2.396,-5.333 5.333,-5.333 h 16 v 37.688 c 0,14.708 11.958,26.667 26.667,26.667 h 74.667 c 14.708,0 26.667,-11.958 26.667,-26.667 V 201.75 l 21.333,21.333 z"
   style="fill:#4fc3f7" />
<path
   id="path29"
   d="m 288,234.667 c -5.896,0 -10.667,-4.771 -10.667,-10.667 v -21.333 c 0,-5.896 4.771,-10.667 10.667,-10.667 5.896,0 10.667,4.771 10.667,10.667 V 224 c 0,5.896 -4.771,10.667 -10.667,10.667 z"
   style="fill:#303c42" />
<rect
   id="rect31"
   height="10.667"
   width="85.333"
   style="fill:#1e88e5"
   y="298.66699"
   x="234.66699" />
<linearGradient
   gradientTransform="matrix(21.3333,0,0,-21.3333,932.3334,13791.667)"
   y2="628.87518"
   x2="-35.345299"
   y1="628.92822"
   x1="-35.3993"
   gradientUnits="userSpaceOnUse"
   id="SVGID_2_">
	<stop
   id="stop33"
   style="stop-color:#000000;stop-opacity:0.1"
   offset="0" />
	<stop
   id="stop35"
   style="stop-color:#000000;stop-opacity:0"
   offset="1" />
</linearGradient>
<path
   id="path38"
   d="m 177.419,374.603 -0.355,0.022 1.137,1.137 c -0.325,-0.336 -0.476,-0.806 -0.782,-1.159 z"
   style="fill:url(#SVGID_2_)" />
<linearGradient
   gradientTransform="matrix(21.3333,0,0,-21.3333,932.3334,13791.667)"
   y2="627.80219"
   x2="-33.417"
   y1="629.2702"
   x1="-34.883999"
   gradientUnits="userSpaceOnUse"
   id="SVGID_3_">
	<stop
   id="stop40"
   style="stop-color:#000000;stop-opacity:0.1"
   offset="0" />
	<stop
   id="stop42"
   style="stop-color:#000000;stop-opacity:0"
   offset="1" />
</linearGradient>
<path
   id="path45"
   d="m 197.333,384 c -7.172,0 -13.632,-2.915 -18.428,-7.534 L 210.212,407.772 223.357,384 Z"
   style="fill:url(#SVGID_3_)" />
<linearGradient
   gradientTransform="matrix(21.3333,0,0,-21.3333,932.3334,13791.667)"
   y2="630.07458"
   x2="-25.4153"
   y1="638.89752"
   x1="-44.336899"
   gradientUnits="userSpaceOnUse"
   id="SVGID_4_">
	<stop
   id="stop47"
   style="stop-color:#FFFFFF;stop-opacity:0.2"
   offset="0" />
	<stop
   id="stop49"
   style="stop-color:#FFFFFF;stop-opacity:0"
   offset="1" />
</linearGradient>
<path
   id="path52"
   d="m 380.875,211.125 -37.333,-37.333 c -0.667,-0.667 -1.504,-1.079 -2.307,-1.543 0.005,-0.53 0.099,-1.052 0.099,-1.582 C 341.333,76.563 264.771,0 170.667,0 76.563,0 0,76.563 0,170.667 c 0,28.25 7.063,56.26 20.49,81.104 L 161.333,506.5 c 1.875,3.396 5.448,5.5 9.333,5.5 3.885,0 7.458,-2.104 9.333,-5.5 L 247.736,384 H 357.334 C 372.042,384 384,372.042 384,357.333 V 218.667 c 0,-2.834 -1.125,-5.542 -3.125,-7.542 z"
   style="fill:url(#SVGID_4_)" />
<g
   transform="translate(-64)"
   id="g54">
</g>
<g
   transform="translate(-64)"
   id="g56">
</g>
<g
   transform="translate(-64)"
   id="g58">
</g>
<g
   transform="translate(-64)"
   id="g60">
</g>
<g
   transform="translate(-64)"
   id="g62">
</g>
<g
   transform="translate(-64)"
   id="g64">
</g>
<g
   transform="translate(-64)"
   id="g66">
</g>
<g
   transform="translate(-64)"
   id="g68">
</g>
<g
   transform="translate(-64)"
   id="g70">
</g>
<g
   transform="translate(-64)"
   id="g72">
</g>
<g
   transform="translate(-64)"
   id="g74">
</g>
<g
   transform="translate(-64)"
   id="g76">
</g>
<g
   transform="translate(-64)"
   id="g78">
</g>
<g
   transform="translate(-64)"
   id="g80">
</g>
<g
   transform="translate(-64)"
   id="g82">
</g>
</svg>