<svg height="511pt" viewBox="0 1 511 511.99997" width="511pt" xmlns="http://www.w3.org/2000/svg"><path d="m397.558594 93.96875v378.148438c0 22.023437-17.855469 39.882812-39.882813 39.882812h-317.292969c-22.027343 0-39.882812-17.859375-39.882812-39.882812v-378.148438c0-22.027344 17.855469-39.886719 39.882812-39.886719h133.675782c0 13.804688 11.179687 24.984375 24.972656 24.984375 13.800781 0 24.980469-11.179687 24.980469-24.984375h133.664062c22.027344 0 39.882813 17.859375 39.882813 39.886719zm0 0" fill="#2c92bf"/><path d="m253.59375 369.894531h89.632812v142.105469h-89.632812zm0 0" fill="#1f81a3"/><path d="m54.835938 103.726562h288.390624v344.816407h-288.390624zm0 0" fill="#e6e6e6"/><path d="m249.550781 34.765625c-7.785156-20.324219-27.460937-34.765625-50.519531-34.765625-23.0625 0-42.738281 14.441406-50.511719 34.765625h-39.804687c-8.980469 0-16.265625 7.28125-16.265625 16.265625v84.042969h213.160156v-84.042969c0-8.984375-7.28125-16.265625-16.265625-16.265625zm-50.519531 44.300781c-13.792969 0-24.972656-11.179687-24.972656-24.984375 0-13.789062 11.179687-24.972656 24.972656-24.972656 13.800781 0 24.980469 11.183594 24.980469 24.972656 0 13.804688-11.179688 24.984375-24.980469 24.984375zm0 0" fill="#ffe14d"/><path d="m253.59375 306.4375h89.632812v142.105469h-89.632812zm0 0" fill="#ccc"/><path d="m279.769531 306.4375h232.507813v205.5625h-232.507813zm0 0" fill="#ff8e1d"/><path d="m436.773438 404.65625-40.75-22.988281-40.75 22.988281v-98.21875h81.5zm0 0" fill="#ff491f"/><path d="m199.03125 86.902344c-18.09375 0-32.8125-14.722656-32.8125-32.820313 0-18.089843 14.71875-32.808593 32.8125-32.808593s32.820312 14.71875 32.820312 32.808593c0 18.097657-14.722656 32.820313-32.820312 32.820313zm0-49.953125c-9.449219 0-17.136719 7.6875-17.136719 17.132812 0 9.457031 7.6875 17.148438 17.136719 17.148438 9.453125 0 17.144531-7.691407 17.144531-17.148438 0-9.445312-7.691406-17.132812-17.144531-17.132812zm0 0" fill="#ffbe1d"/><path d="m113.128906 247.398438c-2.714844 0-5.246094-1.40625-6.675781-3.730469l-17.765625-28.898438c-2.265625-3.6875-1.113281-8.515625 2.574219-10.78125s8.515625-1.113281 10.78125 2.570313l10.535156 17.140625 17.636719-33.742188c2.007812-3.835937 6.738281-5.320312 10.578125-3.316406 3.835937 2.007813 5.320312 6.742187 3.3125 10.578125l-24.03125 45.972656c-1.308594 2.5-3.855469 4.105469-6.671875 4.203125-.09375.003907-.183594.003907-.273438.003907zm0 0" fill="#ff491f"/><path d="m268.816406 224.414062h-100.308594c-4.328124 0-7.835937-3.511718-7.835937-7.839843s3.507813-7.835938 7.835937-7.835938h100.308594c4.328125 0 7.835938 3.507813 7.835938 7.835938s-3.507813 7.839843-7.835938 7.839843zm0 0" fill="#3c3f4d"/><path d="m113.128906 336.78125c-2.714844 0-5.246094-1.410156-6.675781-3.734375l-17.765625-28.898437c-2.265625-3.6875-1.113281-8.515626 2.574219-10.78125 3.6875-2.265626 8.515625-1.113282 10.78125 2.574218l10.535156 17.140625 17.636719-33.746093c2.007812-3.832032 6.738281-5.316407 10.578125-3.3125 3.835937 2.003906 5.320312 6.738281 3.3125 10.574218l-24.03125 45.976563c-1.308594 2.5-3.855469 4.101562-6.671875 4.199219-.09375.007812-.183594.007812-.273438.007812zm0 0" fill="#ff491f"/><path d="m268.816406 313.792969h-100.308594c-4.328124 0-7.835937-3.507813-7.835937-7.835938s3.507813-7.835937 7.835937-7.835937h100.308594c4.328125 0 7.835938 3.507812 7.835938 7.835937s-3.507813 7.835938-7.835938 7.835938zm0 0" fill="#3c3f4d"/><path d="m279.769531 512 116.253907-22.707031 116.253906 22.707031zm0 0" fill="#e2720e"/></svg>