<?xml version="1.0" standalone="no"?>
<!DOCTYPE svg PUBLIC "-//W3C//DTD SVG 20010904//EN"
 "http://www.w3.org/TR/2001/REC-SVG-20010904/DTD/svg10.dtd">
<svg version="1.0" xmlns="http://www.w3.org/2000/svg"
 width="300.000000pt" height="300.000000pt" viewBox="0 0 300.000000 300.000000"
 preserveAspectRatio="xMidYMid meet">
<metadata>
Created by potrace 1.10, written by Peter Selinger 2001-2011
</metadata>
<g transform="translate(0.000000,300.000000) scale(0.100000,-0.100000)"
fill="#000000" stroke="none">
<path d="M1946 2957 c-33 -20 -56 -41 -56 -50 0 -5 -7 -15 -15 -23 -8 -9 -15
-13 -15 -11 0 3 -24 -18 -52 -45 -29 -28 -52 -52 -51 -54 3 -4 -46 -54 -52
-54 -9 0 -105 -102 -105 -111 0 -6 -5 -7 -10 -4 -6 3 -14 -4 -19 -17 -6 -13
-10 -20 -10 -17 -1 11 -121 -109 -121 -121 0 -5 -5 -10 -10 -10 -13 0 -105
-93 -120 -120 -6 -11 -16 -17 -22 -14 -6 4 -8 3 -5 -3 7 -12 -16 -36 -26 -27
-3 3 -10 -4 -17 -15 -6 -12 -7 -21 -3 -21 14 0 533 525 533 539 0 7 3 10 8 8
4 -3 50 37 102 89 52 52 93 94 90 93 -3 0 -14 -6 -24 -12z"/>
<path d="M770 2951 c0 -7 -4 -9 -10 -6 -5 3 -10 3 -10 -2 0 -14 -66 -83 -73
-76 -4 3 -7 1 -7 -6 0 -14 -25 -42 -32 -35 -3 2 -10 -8 -17 -23 -8 -19 17 1
75 59 49 48 85 90 81 94 -4 4 -7 2 -7 -5z"/>
<path d="M1420 2905 c-30 -30 -52 -57 -49 -60 3 -2 29 20 59 50 30 30 52 57
49 60 -3 2 -29 -20 -59 -50z"/>
<path d="M2344 2889 c-38 -39 -73 -77 -77 -85 -5 -8 -12 -12 -18 -9 -5 4 -9 2
-9 -4 0 -6 -22 -31 -49 -56 -86 -81 -139 -133 -148 -147 -4 -7 -23 -25 -41
-40 -18 -15 -31 -29 -30 -30 2 -2 -16 -21 -39 -42 -24 -21 -43 -43 -43 -49 0
-12 505 488 521 516 17 30 3 19 -67 -54z"/>
<path d="M166 2934 c-5 -14 -4 -15 9 -4 17 14 19 20 6 20 -5 0 -12 -7 -15 -16z"/>
<path d="M273 2930 c-13 -10 -23 -23 -23 -30 0 -6 -5 -8 -12 -4 -7 5 -8 3 -3
-6 5 -9 16 -4 38 19 35 34 34 49 0 21z"/>
<path d="M288 2833 c-65 -64 -118 -120 -118 -125 0 -4 38 30 84 76 47 46 87
81 90 78 3 -3 6 0 6 6 0 7 17 28 37 47 20 19 33 35 29 35 -5 0 -62 -53 -128
-117z"/>
<path d="M515 2940 c-3 -5 -2 -10 4 -10 5 0 13 5 16 10 3 6 2 10 -4 10 -5 0
-13 -4 -16 -10z"/>
<path d="M625 2925 c-11 -13 -26 -24 -32 -25 -7 0 -13 -4 -13 -9 0 -4 -113
-120 -250 -257 -214 -213 -291 -294 -278 -294 2 0 140 137 308 305 167 168
300 305 295 305 -6 0 -19 -11 -30 -25z"/>
<path d="M774 2848 c-57 -56 -102 -103 -100 -105 2 -3 52 43 110 101 58 58
103 106 99 106 -3 0 -52 -46 -109 -102z"/>
<path d="M985 2940 c-3 -5 -1 -10 4 -10 6 0 11 5 11 10 0 6 -2 10 -4 10 -3 0
-8 -4 -11 -10z"/>
<path d="M1096 2928 c-9 -12 -16 -19 -16 -16 0 4 -13 -6 -30 -22 -16 -16 -30
-35 -30 -41 0 -7 -3 -10 -6 -6 -7 7 -94 -82 -94 -96 0 -6 -3 -7 -6 -4 -6 6
-64 -59 -64 -72 0 -3 63 58 140 134 77 77 140 141 140 142 0 11 -22 -1 -34
-19z"/>
<path d="M1045 2769 c-99 -100 -170 -175 -157 -168 12 8 22 17 22 22 0 4 5 5
10 2 6 -4 9 -2 8 2 -4 13 84 99 97 95 5 -2 7 0 3 3 -8 8 133 155 148 155 5 0
22 16 37 35 59 75 6 28 -168 -146z"/>
<path d="M1329 2933 c-13 -15 -12 -15 9 -4 23 12 28 21 13 21 -5 0 -15 -7 -22
-17z"/>
<path d="M1575 2942 c-5 -4 -27 -26 -47 -49 -20 -23 -39 -39 -41 -36 -3 2 -8
-5 -12 -16 -3 -12 -11 -19 -16 -16 -5 4 -9 2 -9 -2 0 -5 -12 -21 -26 -36 -14
-16 -24 -30 -22 -32 2 -3 49 41 103 95 55 55 95 100 90 100 -6 0 -14 -4 -20
-8z"/>
<path d="M1806 2934 c-5 -14 -4 -15 9 -4 17 14 19 20 6 20 -5 0 -12 -7 -15
-16z"/>
<path d="M1955 2860 c-49 -49 -87 -90 -83 -90 4 0 48 41 99 90 50 50 88 90 83
90 -5 0 -50 -40 -99 -90z"/>
<path d="M2280 2939 c0 -5 5 -7 10 -4 6 3 10 8 10 11 0 2 -4 4 -10 4 -5 0 -10
-5 -10 -11z"/>
<path d="M2348 2783 c-92 -92 -168 -174 -167 -183 0 -8 4 -5 10 8 5 13 18 26
29 29 11 3 17 9 14 14 -3 5 4 13 15 17 11 4 20 11 20 15 0 14 58 66 66 59 5
-4 5 -2 1 5 -3 7 2 14 14 18 11 4 18 10 15 15 -3 5 3 11 12 14 10 3 23 16 28
28 6 13 16 22 23 21 7 -2 12 3 12 10 0 17 42 57 60 57 7 0 10 3 7 7 -4 3 1 12
11 19 9 7 13 14 8 14 -5 0 -85 -75 -178 -167z"/>
<path d="M2750 2940 c0 -5 -7 -10 -15 -10 -8 0 -15 -3 -15 -8 0 -9 -150 -162
-160 -162 -3 0 -7 -7 -7 -15 0 -9 49 33 109 92 59 59 108 109 108 110 0 2 -4
3 -10 3 -5 0 -10 -4 -10 -10z"/>
<path d="M2125 2910 c-16 -16 -25 -30 -19 -29 8 0 60 59 52 59 -3 0 -17 -13
-33 -30z"/>
<path d="M2809 2892 c-24 -25 -32 -37 -18 -24 14 12 29 19 34 15 4 -5 5 -3 1
4 -3 6 3 18 16 27 12 9 20 18 17 21 -3 2 -25 -17 -50 -43z"/>
<path d="M1670 2920 c-13 -8 -12 -10 3 -10 9 0 17 5 17 10 0 12 -1 12 -20 0z"/>
<path d="M2256 2913 c-6 -14 -5 -15 5 -6 7 7 10 15 7 18 -3 3 -9 -2 -12 -12z"/>
<path d="M2895 2860 c-27 -27 -47 -51 -44 -53 2 -2 28 20 58 50 29 29 50 53
44 53 -5 0 -31 -22 -58 -50z"/>
<path d="M925 2878 l-20 -21 23 12 c12 6 22 16 22 21 0 13 -2 12 -25 -12z"/>
<path d="M1608 2863 c-25 -25 -28 -33 -15 -33 10 0 22 11 27 25 5 14 16 25 24
25 8 0 17 4 20 8 14 23 -27 4 -56 -25z"/>
<path d="M2214 2876 c-11 -12 -24 -28 -29 -36 -4 -8 7 -1 26 17 18 18 31 34
28 36 -2 2 -13 -6 -25 -17z"/>
<path d="M445 2870 c-10 -11 -14 -20 -9 -20 5 0 15 9 22 20 7 11 11 20 9 20
-2 0 -12 -9 -22 -20z"/>
<path d="M187 2843 c-15 -21 -27 -35 -27 -31 0 4 -11 -4 -25 -18 -14 -14 -25
-29 -25 -35 0 -6 -5 -7 -10 -4 -5 3 -10 -2 -10 -12 0 -12 20 3 66 48 37 37 65
72 62 79 -2 6 -16 -5 -31 -27z"/>
<path d="M2055 2840 c-16 -16 -26 -30 -22 -30 7 0 57 48 57 55 0 9 -7 5 -35
-25z"/>
<path d="M56 2823 c-6 -14 -5 -15 5 -6 7 7 10 15 7 18 -3 3 -9 -2 -12 -12z"/>
<path d="M1165 2650 c-103 -105 -186 -192 -184 -195 3 -2 90 81 194 185 104
105 186 192 184 194 -3 3 -90 -80 -194 -184z"/>
<path d="M2310 2393 c-245 -246 -438 -441 -429 -435 9 7 19 10 22 7 4 -3 5 -3
3 0 -5 7 107 125 113 119 2 -2 13 10 23 27 11 18 23 27 31 23 6 -4 9 -4 5 1
-8 9 100 121 113 118 5 -2 8 0 7 5 -4 9 39 52 46 46 3 -2 4 -2 2 1 -5 8 221
235 233 235 5 0 11 9 14 20 3 11 16 24 29 29 12 4 22 11 20 15 -2 4 11 20 28
36 16 15 30 25 30 22 0 -4 9 8 20 26 13 21 25 30 33 26 6 -4 9 -4 5 0 -3 4 20
34 53 67 32 32 56 59 51 59 -4 0 -207 -201 -452 -447z"/>
<path d="M1220 2819 c0 -5 5 -7 10 -4 6 3 10 8 10 11 0 2 -4 4 -10 4 -5 0 -10
-5 -10 -11z"/>
<path d="M1554 2804 c-18 -14 -18 -14 6 -3 31 14 36 19 24 19 -6 0 -19 -7 -30
-16z"/>
<path d="M1665 2800 c-3 -6 1 -7 9 -4 18 7 21 14 7 14 -6 0 -13 -4 -16 -10z"/>
<path d="M2128 2791 c-8 -12 -18 -18 -23 -13 -5 4 -5 1 0 -7 6 -10 12 -9 28 8
12 11 18 23 15 26 -3 4 -12 -3 -20 -14z"/>
<path d="M1935 2718 c-44 -45 -69 -73 -55 -63 40 32 152 145 143 145 -5 0 -44
-37 -88 -82z"/>
<path d="M2500 2465 c-184 -184 -330 -335 -325 -335 6 0 21 14 34 30 13 16 28
27 35 23 6 -3 8 -2 3 2 -9 10 142 165 162 165 8 0 11 3 8 7 -8 7 51 63 66 63
6 0 8 3 4 6 -3 3 75 87 174 186 99 99 179 182 177 184 -2 1 -154 -148 -338
-331z"/>
<path d="M2932 2777 c-12 -13 -22 -27 -22 -32 0 -4 11 4 25 19 23 25 30 36 22
36 -2 0 -13 -10 -25 -23z"/>
<path d="M580 2772 c0 -5 -24 -32 -52 -61 -29 -28 -48 -51 -42 -51 18 0 117
107 105 114 -6 4 -11 3 -11 -2z"/>
<path d="M1467 2722 c-36 -37 -52 -59 -42 -59 9 0 23 13 31 29 9 17 20 26 26
22 6 -4 8 -3 5 3 -6 10 15 31 49 51 15 9 15 11 4 12 -9 0 -42 -26 -73 -58z"/>
<path d="M1159 2753 c-13 -16 -12 -17 4 -4 9 7 17 15 17 17 0 8 -8 3 -21 -13z"/>
<path d="M1625 2760 c-3 -5 -1 -10 4 -10 6 0 11 5 11 10 0 6 -2 10 -4 10 -3 0
-8 -4 -11 -10z"/>
<path d="M1520 2425 c-184 -184 -330 -335 -324 -335 5 0 29 22 53 50 23 27 51
52 62 55 10 4 19 11 19 16 0 15 26 39 34 32 3 -4 6 -2 6 4 0 14 57 72 64 65 3
-3 6 0 6 6 0 14 118 131 125 124 3 -3 5 -1 5 5 0 13 45 62 84 91 16 12 27 22
22 22 -4 0 4 11 18 25 14 14 30 25 36 25 5 0 10 4 10 10 0 5 30 39 66 75 36
36 62 65 57 65 -4 0 -159 -151 -343 -335z"/>
<path d="M2086 2743 c-6 -14 -5 -15 5 -6 7 7 10 15 7 18 -3 3 -9 -2 -12 -12z"/>
<path d="M1360 2725 c-13 -14 -21 -27 -18 -30 2 -3 15 6 28 20 13 14 21 27 18
30 -2 3 -15 -6 -28 -20z"/>
<path d="M1109 2713 l-24 -26 27 19 c15 10 28 22 28 27 0 12 -5 8 -31 -20z"/>
<path d="M1589 2723 c-13 -16 -12 -17 4 -4 16 13 21 21 13 21 -2 0 -10 -8 -17
-17z"/>
<path d="M60 2715 c-7 -9 -11 -18 -8 -20 3 -3 11 1 18 10 7 9 11 18 8 20 -3 3
-11 -1 -18 -10z"/>
<path d="M352 2427 c-166 -167 -302 -307 -302 -312 1 -6 9 0 19 12 10 12 22
19 26 15 3 -4 5 -2 3 3 -4 13 254 275 270 275 7 0 11 4 9 8 -2 10 170 181 178
176 3 -2 3 -1 1 2 -2 3 21 30 50 61 30 31 53 57 51 59 -2 2 -139 -133 -305
-299z"/>
<path d="M2454 2652 c-43 -43 -98 -100 -121 -125 -24 -26 -43 -45 -43 -42 0 2
-11 -6 -25 -19 -14 -13 -25 -29 -25 -35 0 -7 -4 -9 -10 -6 -5 3 -10 2 -10 -3
0 -5 -27 -35 -61 -68 -33 -32 -73 -72 -87 -87 -15 -15 -38 -38 -51 -50 -40
-36 -55 -51 -83 -87 -16 -19 -28 -31 -28 -28 0 4 -25 -18 -56 -48 -31 -31 -53
-58 -50 -62 4 -3 172 159 373 361 202 201 365 369 362 372 -3 3 -41 -30 -85
-73z"/>
<path d="M2044 2705 c-10 -8 -14 -15 -8 -15 6 0 17 7 24 15 16 19 9 19 -16 0z"/>
<path d="M109 2652 c-25 -26 -52 -56 -60 -66 -13 -18 -13 -18 8 -5 12 7 20 15
17 18 -2 3 17 24 42 48 26 24 46 45 43 47 -2 2 -25 -17 -50 -42z"/>
<path d="M270 2690 c-9 -6 -10 -10 -3 -10 6 0 15 5 18 10 8 12 4 12 -15 0z"/>
<path d="M1312 2688 c-14 -14 -16 -42 -3 -34 7 5 23 46 17 46 -1 0 -7 -5 -14
-12z"/>
<path d="M2836 2673 c-6 -14 -5 -15 5 -6 7 7 10 15 7 18 -3 3 -9 -2 -12 -12z"/>
<path d="M793 2631 c-24 -24 -43 -48 -43 -54 0 -6 -3 -8 -6 -4 -7 7 -44 -29
-44 -44 0 -6 32 21 71 59 39 38 70 73 68 78 -2 5 -23 -11 -46 -35z"/>
<path d="M2010 2669 c0 -5 5 -7 10 -4 6 3 10 8 10 11 0 2 -4 4 -10 4 -5 0 -10
-5 -10 -11z"/>
<path d="M2940 2672 c0 -11 -134 -147 -165 -168 -14 -9 -25 -23 -25 -32 0 -8
43 27 96 79 96 95 124 129 104 129 -5 0 -10 -4 -10 -8z"/>
<path d="M2345 2660 c-3 -5 -1 -10 4 -10 6 0 11 5 11 10 0 6 -2 10 -4 10 -3 0
-8 -4 -11 -10z"/>
<path d="M445 2630 c-11 -16 -23 -26 -27 -24 -4 3 -8 -2 -8 -11 0 -9 -4 -13
-10 -10 -5 3 -10 2 -10 -3 0 -5 -9 -19 -20 -32 -11 -13 -20 -21 -20 -18 0 3
-36 -31 -80 -76 -44 -44 -80 -84 -80 -89 0 -4 -6 -5 -12 -1 -7 4 -10 4 -6 -1
4 -4 -2 -16 -14 -27 -12 -10 -19 -20 -17 -22 2 -2 80 71 172 164 93 92 164
170 160 173 -5 3 -17 -7 -28 -23z"/>
<path d="M1255 2620 c-16 -21 -32 -37 -35 -36 -3 1 -19 -13 -37 -31 -17 -18
-30 -33 -28 -33 2 0 -18 -21 -45 -47 -28 -26 -50 -52 -50 -58 0 -12 207 192
221 218 18 33 5 26 -26 -13z"/>
<path d="M1342 2595 c-29 -30 -50 -55 -45 -55 13 0 79 63 86 83 4 10 11 16 16
12 5 -3 12 -1 16 5 3 5 0 10 -7 10 -7 0 -37 -25 -66 -55z"/>
<path d="M1980 2640 c-8 -5 -12 -12 -9 -15 4 -3 12 1 19 10 14 17 11 19 -10 5z"/>
<path d="M1505 2632 c-5 -4 -17 -16 -25 -27 -11 -15 -7 -14 13 4 24 22 32 31
25 31 -2 0 -7 -4 -13 -8z"/>
<path d="M201 2621 c-8 -5 -9 -11 -3 -15 5 -3 12 1 16 9 6 17 6 18 -13 6z"/>
<path d="M654 2598 l-19 -23 23 19 c21 18 27 26 19 26 -2 0 -12 -10 -23 -22z"/>
<path d="M1939 2601 c-29 -30 -33 -46 -4 -18 15 15 26 29 24 31 -2 2 -11 -4
-20 -13z"/>
<path d="M1755 2540 c-38 -38 -66 -70 -62 -70 6 0 98 90 127 125 29 35 -1 10
-65 -55z"/>
<path d="M2281 2587 c-13 -21 -12 -21 5 -5 10 10 16 20 13 22 -3 3 -11 -5 -18
-17z"/>
<path d="M2155 2591 c-3 -5 -2 -12 3 -15 5 -3 9 1 9 9 0 17 -3 19 -12 6z"/>
<path d="M819 2543 l-34 -38 40 35 c22 19 42 36 44 38 2 1 0 2 -5 2 -6 0 -26
-17 -45 -37z"/>
<path d="M1882 2542 c-11 -25 -11 -25 4 -10 9 9 15 21 13 27 -2 6 -10 -2 -17
-17z"/>
<path d="M2080 2514 c-53 -53 -53 -55 -18 -34 21 12 36 26 33 30 -3 5 3 15 13
22 17 12 37 38 30 38 -2 0 -28 -25 -58 -56z"/>
<path d="M2720 2560 c-9 -6 -10 -10 -3 -10 6 0 15 5 18 10 8 12 4 12 -15 0z"/>
<path d="M939 2543 c-13 -16 -12 -17 4 -4 9 7 17 15 17 17 0 8 -8 3 -21 -13z"/>
<path d="M2557 2172 c-213 -213 -387 -391 -387 -396 0 -5 8 1 19 12 10 12 21
19 25 15 3 -3 6 -2 6 4 0 12 59 79 68 76 4 0 13 5 20 13 7 8 10 14 7 14 -2 0
3 9 12 19 9 11 21 18 25 14 5 -3 12 4 15 16 3 12 12 21 19 21 8 0 14 7 14 16
0 9 5 12 13 8 6 -4 9 -4 5 0 -8 9 56 76 72 76 5 0 10 4 10 10 0 15 32 50 41
44 4 -2 10 5 14 16 4 11 11 17 17 14 6 -4 8 -2 5 3 -4 6 9 20 29 32 19 12 33
24 31 29 -2 4 10 20 27 37 17 16 31 27 32 25 1 -7 30 23 34 35 3 6 18 19 35
30 16 12 29 24 28 28 -4 10 34 47 48 47 5 0 7 5 4 10 -3 6 1 10 10 10 8 0 19
8 22 17 4 10 24 35 44 55 21 21 34 38 31 38 -4 0 -181 -174 -395 -388z"/>
<path d="M2215 2529 c-4 -6 -5 -12 -2 -15 2 -3 7 2 10 11 7 17 1 20 -8 4z"/>
<path d="M2685 2530 c-3 -5 -1 -10 4 -10 6 0 11 5 11 10 0 6 -2 10 -4 10 -3 0
-8 -4 -11 -10z"/>
<path d="M1055 2310 c-146 -146 -213 -220 -201 -220 11 0 17 3 13 6 -9 9 25
44 36 37 6 -3 7 -1 4 4 -8 13 17 36 27 25 4 -4 6 -1 4 6 -1 6 8 18 22 25 14 7
25 19 25 27 0 8 7 15 15 15 8 0 15 5 15 10 0 17 16 36 26 30 5 -4 9 1 9 9 0 9
5 15 12 13 7 -1 12 3 13 8 1 20 17 35 28 29 7 -4 9 -4 6 0 -7 8 52 72 63 68 4
-1 10 7 13 18 4 12 11 17 18 14 7 -4 9 -4 5 1 -7 8 16 36 29 35 4 -1 11 8 15
20 4 12 12 19 17 16 5 -3 11 1 15 9 3 8 2 15 -2 15 -4 0 -106 -99 -227 -220z"/>
<path d="M660 2501 c-16 -30 -12 -36 10 -16 21 19 26 35 10 35 -5 0 -14 -9
-20 -19z"/>
<path d="M2654 2496 c-10 -8 -17 -16 -14 -19 3 -2 14 4 24 14 23 22 18 25 -10
5z"/>
<path d="M60 2485 c-7 -9 -11 -17 -9 -20 3 -2 10 5 17 15 14 24 10 26 -8 5z"/>
<path d="M555 2280 c-121 -121 -215 -220 -210 -220 6 0 24 16 40 35 17 19 36
35 44 35 8 0 11 3 8 7 -4 3 74 86 173 185 99 98 177 178 172 178 -4 0 -106
-99 -227 -220z"/>
<path d="M631 2467 c-1 -10 -5 -15 -11 -12 -5 3 -10 -1 -10 -10 0 -9 -4 -13
-10 -10 -5 3 -10 -2 -10 -12 0 -15 4 -13 26 9 15 14 24 32 21 39 -4 10 -6 8
-6 -4z"/>
<path d="M1645 2430 c-16 -16 -26 -30 -22 -30 3 0 21 14 39 30 18 17 28 30 22
30 -6 0 -23 -13 -39 -30z"/>
<path d="M1785 2449 c-11 -17 1 -21 15 -4 8 9 8 15 2 15 -6 0 -14 -5 -17 -11z"/>
<path d="M2673 2399 c-33 -32 -58 -61 -54 -64 9 -5 127 112 120 119 -2 3 -32
-22 -66 -55z"/>
<path d="M903 2387 c-34 -34 -67 -67 -75 -74 -7 -6 -48 -48 -92 -92 -43 -45
-82 -81 -88 -81 -5 0 -7 -4 -4 -9 4 -5 -6 -18 -21 -29 -16 -11 -26 -23 -23
-26 3 -3 88 78 190 179 101 102 182 187 179 190 -3 3 -33 -23 -66 -58z"/>
<path d="M1965 2400 c-27 -27 -45 -50 -40 -50 6 0 21 14 34 30 13 16 27 27 32
24 5 -3 9 2 9 10 0 8 8 20 18 25 9 6 12 11 7 11 -6 0 -33 -22 -60 -50z"/>
<path d="M1299 2423 c-13 -16 -12 -17 4 -4 9 7 17 15 17 17 0 8 -8 3 -21 -13z"/>
<path d="M2584 2424 c-18 -14 -18 -15 4 -4 12 6 22 13 22 15 0 8 -5 6 -26 -11z"/>
<path d="M2940 2429 c0 -5 5 -7 10 -4 6 3 10 8 10 11 0 2 -4 4 -10 4 -5 0 -10
-5 -10 -11z"/>
<path d="M816 2414 c-5 -14 -4 -15 9 -4 17 14 19 20 6 20 -5 0 -12 -7 -15 -16z"/>
<path d="M1871 2424 c-1 -10 -119 -134 -129 -134 -2 0 -32 -30 -66 -67 -33
-37 -79 -84 -101 -104 -22 -21 -37 -40 -34 -43 9 -9 341 333 336 346 -3 7 -6
8 -6 2z"/>
<path d="M570 2418 c-2 -5 -3 -12 -4 -18 0 -5 -5 -11 -11 -12 -16 -5 -115
-107 -115 -120 0 -6 -3 -9 -6 -5 -7 6 -36 -21 -59 -57 -10 -14 -22 -26 -27
-26 -13 0 -128 -119 -128 -132 0 -6 82 70 181 169 112 112 179 186 176 194 -3
8 -6 11 -7 7z"/>
<path d="M967 2335 c-43 -44 -104 -108 -137 -141 -32 -34 -60 -61 -62 -59 -2
1 -13 -11 -26 -26 -13 -16 -20 -29 -15 -29 13 0 326 318 322 327 -2 4 -39 -28
-82 -72z"/>
<path d="M787 2393 c-4 -3 -7 -11 -7 -17 0 -6 5 -5 12 2 6 6 9 14 7 17 -3 3
-9 2 -12 -2z"/>
<path d="M1565 2348 c-22 -23 -31 -36 -20 -28 32 24 77 70 68 70 -5 0 -27 -19
-48 -42z"/>
<path d="M1711 2373 c-7 -8 -11 -16 -8 -19 2 -2 10 2 17 11 17 20 9 27 -9 8z"/>
<path d="M1220 2349 c0 -5 5 -7 10 -4 6 3 10 8 10 11 0 2 -4 4 -10 4 -5 0 -10
-5 -10 -11z"/>
<path d="M2039 2343 c-13 -16 -12 -17 4 -4 9 7 17 15 17 17 0 8 -8 3 -21 -13z"/>
<path d="M2465 2310 c-66 -67 -54 -69 14 -3 30 29 50 53 45 53 -5 0 -32 -22
-59 -50z"/>
<path d="M2860 2349 c0 -5 5 -7 10 -4 6 3 10 8 10 11 0 2 -4 4 -10 4 -5 0 -10
-5 -10 -11z"/>
<path d="M1672 2334 c-7 -8 -8 -14 -3 -14 10 0 25 19 20 25 -2 1 -10 -3 -17
-11z"/>
<path d="M1877 2312 c-19 -20 -23 -29 -13 -29 8 0 13 3 11 7 -5 8 23 35 45 43
13 5 13 6 -1 6 -8 1 -27 -12 -42 -27z"/>
<path d="M715 2320 c-3 -6 1 -7 9 -4 18 7 21 14 7 14 -6 0 -13 -4 -16 -10z"/>
<path d="M2585 2321 c-3 -5 -1 -12 4 -15 5 -3 11 1 15 9 6 16 -9 21 -19 6z"/>
<path d="M2938 2310 c-7 -11 -18 -20 -24 -20 -6 0 -17 -11 -24 -25 -7 -13 -18
-22 -23 -18 -6 3 -7 1 -3 -5 4 -7 3 -12 -3 -12 -5 0 -31 -23 -58 -51 -26 -28
-74 -76 -106 -107 -32 -32 -84 -84 -115 -116 -31 -32 -88 -89 -125 -125 -38
-36 -73 -75 -79 -86 -12 -24 559 542 573 568 13 24 2 22 -13 -3z"/>
<path d="M1628 2293 c-8 -10 -18 -25 -22 -33 -7 -13 -6 -13 6 0 7 8 21 23 31
33 10 9 14 17 9 17 -5 0 -16 -8 -24 -17z"/>
<path d="M110 2291 c0 -7 -3 -10 -7 -8 -5 2 -21 -11 -36 -29 -16 -19 -25 -34
-20 -34 14 0 77 69 70 77 -4 3 -7 1 -7 -6z"/>
<path d="M2565 2292 c-6 -4 -31 -30 -57 -58 -26 -29 -49 -50 -51 -47 -3 2 -8
-5 -12 -16 -3 -12 -11 -19 -16 -16 -5 4 -9 2 -9 -4 0 -13 -129 -139 -135 -133
-3 3 -5 -3 -5 -13 0 -13 51 32 152 133 84 83 150 153 147 156 -2 3 -9 2 -14
-2z"/>
<path d="M2796 2283 c-6 -14 -5 -15 5 -6 7 7 10 15 7 18 -3 3 -9 -2 -12 -12z"/>
<path d="M1480 2265 c-13 -14 -22 -27 -19 -29 2 -2 14 10 27 25 29 36 24 38
-8 4z"/>
<path d="M1730 2165 c-68 -69 -98 -105 -87 -105 10 0 16 3 13 8 -6 10 90 102
99 94 4 -4 5 -2 3 3 -3 12 53 77 60 70 7 -6 32 15 32 26 0 20 -20 4 -120 -96z"/>
<path d="M645 2250 c-3 -5 -1 -10 4 -10 6 0 11 5 11 10 0 6 -2 10 -4 10 -3 0
-8 -4 -11 -10z"/>
<path d="M1213 2233 c4 -5 -5 -16 -18 -23 -14 -7 -25 -20 -25 -27 0 -8 -5 -11
-10 -8 -6 3 -13 -1 -16 -10 -12 -30 2 -24 45 19 30 31 39 46 30 51 -7 5 -10 4
-6 -2z"/>
<path d="M1085 2220 c-3 -5 -2 -10 4 -10 5 0 13 5 16 10 3 6 2 10 -4 10 -5 0
-13 -4 -16 -10z"/>
<path d="M1546 2205 c-9 -14 -15 -25 -13 -25 2 0 13 11 25 25 12 14 18 25 13
25 -5 0 -16 -11 -25 -25z"/>
<path d="M1906 2213 c-6 -14 -5 -15 5 -6 7 7 10 15 7 18 -3 3 -9 -2 -12 -12z"/>
<path d="M1370 2155 c-35 -36 -62 -65 -58 -65 3 0 35 29 71 65 36 36 62 65 58
65 -3 0 -36 -29 -71 -65z"/>
<path d="M2935 2199 c-11 -16 -1 -19 13 -3 7 8 8 14 3 14 -5 0 -13 -5 -16 -11z"/>
<path d="M2907 2173 c-10 -9 -9 -23 1 -23 5 0 9 7 9 15 0 17 -1 18 -10 8z"/>
<path d="M2314 2156 c-10 -8 -17 -16 -14 -19 3 -2 14 4 24 14 23 22 18 25 -10
5z"/>
<path d="M1098 2120 c-29 -33 -23 -40 12 -12 13 10 21 24 19 30 -3 8 -15 0
-31 -18z"/>
<path d="M1455 2117 c-21 -20 -24 -26 -9 -19 22 11 50 41 43 45 -2 2 -17 -10
-34 -26z"/>
<path d="M2871 2136 c-7 -8 -8 -17 -3 -20 6 -3 15 1 21 8 7 8 8 17 3 20 -6 3
-15 -1 -21 -8z"/>
<path d="M2055 2018 c-110 -112 -88 -98 37 25 43 42 75 77 71 77 -5 0 -53 -46
-108 -102z"/>
<path d="M2835 2099 c-10 -15 3 -25 16 -12 7 7 7 13 1 17 -6 3 -14 1 -17 -5z"/>
<path d="M1779 2083 c-13 -16 -12 -17 4 -4 16 13 21 21 13 21 -2 0 -10 -8 -17
-17z"/>
<path d="M477 2083 c-4 -3 -7 -11 -7 -17 0 -6 5 -5 12 2 6 6 9 14 7 17 -3 3
-9 2 -12 -2z"/>
<path d="M2586 2073 c-6 -14 -5 -15 5 -6 7 7 10 15 7 18 -3 3 -9 -2 -12 -12z"/>
<path d="M2761 1903 c-103 -103 -177 -179 -165 -170 11 9 24 14 27 10 4 -3 7
0 7 7 0 7 74 86 165 176 91 90 162 164 158 164 -4 0 -90 -84 -192 -187z"/>
<path d="M2787 2052 c-29 -30 -33 -42 -17 -42 6 0 9 6 8 13 -2 6 2 11 8 10 16
-3 48 34 36 41 -5 3 -21 -7 -35 -22z m33 14 c0 -2 -8 -10 -17 -17 -16 -13 -17
-12 -4 4 13 16 21 21 21 13z"/>
<path d="M765 2043 c-151 -6 -550 -35 -555 -40 -3 -3 8 -15 24 -28 l29 -23
-51 -83 c-27 -46 -64 -113 -82 -149 -31 -61 -32 -69 -27 -148 5 -81 4 -86 -26
-134 -38 -61 -42 -136 -10 -190 16 -28 28 -35 88 -51 39 -9 99 -20 135 -23
l66 -6 11 49 c20 86 52 158 89 202 53 61 82 73 180 72 118 -1 169 -16 215 -64
29 -30 85 -149 104 -221 8 -32 16 -61 19 -63 4 -4 873 -22 1111 -23 l161 0 11
68 c16 99 48 175 99 231 55 62 97 75 205 68 92 -6 157 -32 192 -78 35 -46 84
-153 92 -200 7 -43 25 -50 63 -23 50 35 68 119 52 234 -19 134 -26 149 -75
171 -87 38 -258 73 -538 109 l-158 20 -107 70 c-132 87 -366 205 -447 225
-109 27 -237 35 -520 33 -154 -1 -311 -3 -350 -5z m255 -23 c0 -5 -8 -10 -17
-10 -15 0 -16 2 -3 10 19 12 20 12 20 0z m134 2 c2 -4 -10 -9 -27 -10 -24 -2
-28 0 -17 8 18 12 37 13 44 2z m106 -2 c0 -5 -10 -10 -22 -10 -19 0 -20 2 -8
10 19 13 30 13 30 0z m-350 -6 c0 -3 -7 -12 -16 -21 -17 -17 -42 -4 -30 16 7
11 46 16 46 5z m413 -1 c-7 -2 -19 -2 -25 0 -7 3 -2 5 12 5 14 0 19 -2 13 -5z
m52 -3 c-3 -5 -13 -10 -21 -10 -8 0 -14 5 -14 10 0 6 9 10 21 10 11 0 17 -4
14 -10z m110 4 c14 -6 14 -9 -6 -30 -21 -23 -22 -27 -6 -104 3 -14 11 -58 18
-99 16 -93 33 -116 91 -117 23 -1 90 -5 148 -8 295 -18 296 -18 320 2 l23 19
-22 32 c-13 18 -51 54 -85 81 -33 27 -74 61 -91 75 l-30 25 30 -12 c17 -7 41
-20 54 -30 13 -10 29 -18 36 -18 6 0 21 -8 33 -17 11 -10 33 -26 49 -35 49
-30 67 -42 95 -64 14 -12 46 -24 70 -28 85 -12 144 -19 176 -20 17 -1 32 -4
32 -7 0 -3 21 -7 47 -8 26 -1 64 -6 85 -12 21 -5 43 -7 49 -4 5 4 16 2 23 -4
7 -6 31 -12 52 -14 21 -1 44 -5 49 -9 6 -3 26 -9 45 -13 50 -10 124 -37 132
-49 4 -6 8 -23 8 -38 0 -14 5 -28 11 -30 18 -6 15 -197 -4 -240 -9 -21 -20
-38 -26 -38 -5 0 -19 25 -30 55 -50 132 -103 206 -171 237 -62 29 -221 33
-277 8 -80 -36 -141 -132 -179 -278 l-19 -73 -470 7 c-258 3 -515 7 -570 9
-55 2 -118 3 -141 4 l-40 1 -19 63 c-28 96 -72 178 -120 224 -52 48 -117 67
-230 66 -86 0 -137 -23 -187 -85 -46 -56 -57 -79 -83 -163 l-22 -70 -64 4
c-35 1 -86 9 -114 15 -41 11 -53 19 -68 47 -22 44 -14 110 21 162 15 22 25 51
25 70 -1 18 -2 59 -4 92 -2 66 15 108 114 273 39 63 48 85 39 94 -20 20 -13
27 22 21 19 -3 48 -1 64 5 17 6 49 8 71 5 l41 -6 -43 -27 c-48 -31 -167 -154
-167 -174 0 -7 9 -21 20 -31 20 -18 25 -18 245 -31 61 -3 130 -7 155 -9 83 -5
97 1 115 53 27 77 47 118 52 105 2 -7 0 -20 -5 -30 -6 -10 -13 -39 -17 -64 -9
-59 9 -80 69 -78 57 1 255 -9 264 -14 4 -3 39 -5 77 -5 39 0 92 -2 118 -5 73
-7 77 2 76 146 -1 122 -13 175 -42 178 -6 1 6 5 28 9 22 4 41 8 42 9 1 0 9 -2
18 -5z m-958 -20 c-3 -3 -12 -4 -19 -1 -8 3 -5 6 6 6 11 1 17 -2 13 -5z m1055
-6 c-9 -9 -15 -9 -24 0 -9 9 -7 12 12 12 19 0 21 -3 12 -12z m-340 -8 l157 -2
5 -51 c3 -29 7 -91 8 -139 3 -83 2 -87 -17 -83 -11 2 -119 9 -240 15 -121 6
-238 13 -261 16 l-40 5 28 112 c16 62 30 117 32 122 2 6 39 10 87 9 46 -1 155
-2 241 -4z m383 0 c3 -6 -1 -7 -9 -4 -18 7 -21 14 -7 14 6 0 13 -4 16 -10z
m-817 -121 l-40 -120 -52 5 c-28 3 -134 11 -236 17 -102 6 -186 12 -188 14 -8
8 142 155 175 170 41 20 141 32 285 34 l97 1 -41 -121z m872 111 c0 -5 -9 -10
-20 -10 -11 0 -20 5 -20 10 0 6 9 10 20 10 11 0 20 -4 20 -10z m-87 -21 c45
-11 108 -32 142 -46 81 -34 209 -120 270 -182 46 -47 47 -51 25 -51 -18 0
-478 28 -497 30 -2 0 -3 10 -3 23 -1 12 -11 73 -23 135 -19 91 -20 112 -9 112
7 0 50 -9 95 -21z m187 -23 c0 -2 -11 -1 -25 2 -14 2 -22 8 -19 13 4 8 44 -6
44 -15z m60 -27 c0 -14 -26 -11 -39 5 -9 11 -6 12 14 8 14 -2 25 -8 25 -13z"/>
<path d="M970 1875 c-35 -36 -62 -65 -59 -65 3 0 36 29 73 65 37 36 63 65 59
65 -5 0 -38 -29 -73 -65z"/>
<path d="M1135 1920 c-10 -11 -14 -20 -9 -20 5 0 15 9 22 20 7 11 11 20 9 20
-2 0 -12 -9 -22 -20z"/>
<path d="M1218 1880 c-16 -14 -28 -29 -28 -34 0 -5 14 6 32 23 38 37 34 48 -4
11z"/>
<path d="M1353 1896 c-6 -6 -39 -38 -72 -70 -34 -32 -59 -61 -56 -65 3 -3 38
27 77 67 39 40 69 74 67 76 -2 2 -9 -1 -16 -8z"/>
<path d="M1045 1829 c-28 -27 -43 -47 -35 -43 14 6 97 94 88 94 -2 0 -26 -23
-53 -51z"/>
<path d="M1166 1823 c-6 -14 -5 -15 5 -6 7 7 10 15 7 18 -3 3 -9 -2 -12 -12z"/>
<path d="M1342 1777 c-17 -18 -19 -24 -7 -24 8 0 13 3 10 5 -3 3 3 11 13 18 9
7 14 15 11 18 -3 3 -15 -5 -27 -17z"/>
<path d="M514 1879 c-72 -74 -76 -79 -67 -79 12 0 128 118 122 125 -3 2 -28
-18 -55 -46z"/>
<path d="M605 1859 c-57 -58 -64 -68 -37 -55 18 9 31 20 29 24 -5 8 60 72 66
65 3 -2 7 5 10 17 3 11 4 20 3 20 -1 0 -33 -32 -71 -71z"/>
<path d="M710 1839 c0 -5 5 -7 10 -4 6 3 10 8 10 11 0 2 -4 4 -10 4 -5 0 -10
-5 -10 -11z"/>
<path d="M1622 1822 c-74 -79 -60 -86 18 -7 35 36 58 65 50 64 -8 0 -39 -26
-68 -57z"/>
<path d="M1700 1785 c-30 -30 -52 -55 -48 -55 7 0 108 99 108 106 0 9 -7 2
-60 -51z"/>
<path d="M1795 1760 c-21 -22 -37 -40 -34 -40 7 0 38 28 63 58 31 36 13 25
-29 -18z"/>
<path d="M2175 2020 c-3 -5 -1 -10 4 -10 6 0 11 5 11 10 0 6 -2 10 -4 10 -3 0
-8 -4 -11 -10z"/>
<path d="M2716 1979 c-16 -16 -26 -32 -23 -36 4 -4 21 7 37 24 17 17 27 34 23
36 -5 3 -21 -8 -37 -24z"/>
<path d="M150 1983 c0 -8 -4 -12 -9 -9 -5 3 -16 -5 -25 -19 -23 -35 -6 -31 32
8 22 23 28 34 17 34 -8 0 -15 -7 -15 -14z"/>
<path d="M2252 1988 c-7 -7 -12 -19 -12 -27 0 -8 -3 -12 -6 -9 -7 7 -51 -35
-47 -44 2 -4 -7 -12 -19 -19 -31 -16 -52 -39 -54 -57 -3 -17 131 111 148 141
12 23 6 31 -10 15z"/>
<path d="M2940 1960 c-6 -11 -8 -20 -6 -20 3 0 10 9 16 20 6 11 8 20 6 20 -3
0 -10 -9 -16 -20z"/>
<path d="M2081 1925 c-13 -14 -19 -25 -14 -25 5 0 19 11 31 25 28 32 14 32
-17 0z"/>
<path d="M2665 1929 c-10 -15 3 -25 16 -12 7 7 7 13 1 17 -6 3 -14 1 -17 -5z"/>
<path d="M67 1903 c-25 -33 -16 -39 12 -9 12 13 19 26 14 29 -4 3 -16 -6 -26
-20z"/>
<path d="M2616 1881 c-15 -16 -23 -31 -18 -35 5 -3 21 8 36 23 15 16 23 31 18
35 -5 3 -21 -8 -36 -23z m34 16 c0 -2 -12 -14 -27 -28 l-28 -24 24 28 c23 25
31 32 31 24z"/>
<path d="M106 1830 c-38 -38 -65 -70 -60 -70 12 0 46 33 108 106 47 56 24 39
-48 -36z"/>
<path d="M2868 1778 c-111 -110 -116 -136 -7 -31 73 71 106 111 97 117 -2 1
-42 -37 -90 -86z"/>
<path d="M2543 1807 c-25 -24 -29 -37 -13 -37 6 0 9 4 8 9 -2 5 0 8 3 8 6 -2
39 29 39 37 0 12 -15 4 -37 -17z"/>
<path d="M2769 1793 c-13 -16 -12 -17 4 -4 9 7 17 15 17 17 0 8 -8 3 -21 -13z"/>
<path d="M2495 1759 c-10 -15 3 -25 16 -12 7 7 7 13 1 17 -6 3 -14 1 -17 -5z"/>
<path d="M2900 1695 c-24 -25 -42 -45 -39 -45 3 0 27 20 52 45 26 25 44 45 39
45 -4 0 -28 -20 -52 -45z"/>
<path d="M2940 1609 c0 -5 5 -7 10 -4 6 3 10 8 10 11 0 2 -4 4 -10 4 -5 0 -10
-5 -10 -11z"/>
<path d="M600 1441 c-71 -23 -141 -83 -174 -149 -82 -161 52 -362 239 -362 73
0 128 24 178 75 126 130 94 330 -66 411 -53 27 -135 39 -177 25z m130 -35 c19
-1 78 -42 108 -76 61 -67 71 -165 26 -250 -31 -59 -82 -97 -159 -117 -72 -19
-143 4 -207 68 -55 55 -73 108 -63 183 11 85 52 138 142 182 38 19 57 22 93
17 24 -3 51 -6 60 -7z"/>
<path d="M585 1361 c-153 -70 -151 -283 3 -351 24 -11 53 -18 65 -16 12 3 37
5 55 5 24 1 45 12 77 42 133 123 49 342 -130 338 -16 0 -48 -9 -70 -18z m152
-31 c63 -28 85 -69 81 -150 -5 -102 -56 -153 -154 -153 -85 0 -148 49 -160
125 -23 142 103 238 233 178z"/>
<path d="M632 1298 c-7 -7 -12 -16 -12 -21 0 -5 7 -1 16 8 9 9 14 18 12 20 -2
3 -10 -1 -16 -7z"/>
<path d="M721 1271 c-8 -5 -9 -11 -3 -15 5 -3 15 1 22 9 14 16 3 20 -19 6z"/>
<path d="M573 1235 c-18 -19 -33 -38 -33 -42 0 -5 16 9 35 30 31 34 40 47 33
47 -2 0 -18 -16 -35 -35z"/>
<path d="M675 1221 c-17 -14 -42 -41 -57 -60 -16 -18 -28 -29 -28 -24 0 11
-20 -20 -20 -32 0 -5 32 23 72 63 70 71 92 107 33 53z"/>
<path d="M754 1189 c-19 -22 -19 -22 4 -10 12 6 22 16 22 21 0 15 -5 12 -26
-11z"/>
<path d="M676 1111 c-36 -37 -44 -48 -28 -44 12 3 20 8 17 12 -4 8 54 66 66
66 4 0 11 3 15 8 4 4 1 7 -7 7 -8 0 -37 -22 -63 -49z"/>
<path d="M2479 1434 c-59 -18 -131 -82 -160 -141 -59 -122 -4 -274 123 -337
145 -73 316 7 363 169 37 125 -47 271 -178 310 -61 18 -88 18 -148 -1z m185
-48 c51 -27 86 -68 109 -123 15 -38 16 -54 7 -110 -15 -91 -57 -147 -135 -177
-64 -24 -106 -27 -155 -9 -96 36 -150 100 -161 193 -12 100 29 175 126 230 44
25 57 28 110 23 33 -3 78 -15 99 -27z"/>
<path d="M2483 1364 c-40 -20 -80 -59 -101 -99 -19 -36 -20 -121 -2 -156 25
-48 61 -89 80 -89 10 0 20 -6 22 -12 6 -17 104 -17 148 0 133 50 153 257 32
337 -50 33 -135 42 -179 19z m167 -42 c32 -23 70 -97 70 -137 0 -46 -40 -117
-78 -139 -43 -24 -126 -25 -170 -2 -68 35 -98 132 -64 207 22 51 48 76 88 89
41 13 124 4 154 -18z"/>
<path d="M2470 1265 c-19 -19 -29 -35 -22 -35 6 0 16 9 22 20 6 12 16 18 23
14 7 -4 8 -3 4 1 -4 5 3 15 15 22 16 8 18 12 7 13 -8 0 -30 -16 -49 -35z"/>
<path d="M2593 1145 c-42 -42 -74 -77 -72 -80 3 -2 40 32 84 76 43 43 76 79
71 79 -4 0 -41 -34 -83 -75z"/>
<path d="M2515 1190 c-3 -5 -1 -10 4 -10 6 0 11 5 11 10 0 6 -2 10 -4 10 -3 0
-8 -4 -11 -10z"/>
<path d="M56 1183 c-6 -14 -5 -15 5 -6 7 7 10 15 7 18 -3 3 -9 -2 -12 -12z"/>
<path d="M140 1149 c0 -5 -4 -8 -8 -5 -5 3 -15 -6 -22 -19 -7 -13 -17 -22 -22
-19 -5 3 -7 1 -6 -4 2 -6 -1 -10 -6 -10 -5 0 -13 -8 -19 -17 -19 -34 1 -23 53
30 30 30 49 55 42 55 -7 0 -12 -5 -12 -11z"/>
<path d="M136 1040 c-47 -49 -86 -94 -86 -101 0 -6 14 3 30 21 17 18 30 34 30
36 0 9 105 111 120 116 9 3 10 7 3 11 -6 4 -49 -34 -97 -83z"/>
<path d="M282 1065 c-36 -36 -63 -65 -59 -65 4 0 37 29 72 65 36 36 62 65 59
65 -4 0 -36 -29 -72 -65z"/>
<path d="M675 760 c-181 -181 -325 -330 -320 -330 6 0 16 9 23 20 7 12 17 18
23 15 5 -4 8 -3 7 2 -3 10 148 163 162 163 6 0 10 4 10 8 0 11 108 120 115
116 3 -2 3 -1 1 2 -8 10 37 54 48 47 6 -3 8 -2 3 2 -10 12 103 126 117 118 6
-3 8 -2 3 2 -9 10 33 56 44 49 5 -3 9 0 9 6 0 17 26 40 35 32 5 -4 5 -2 2 4
-3 6 3 17 14 25 18 12 45 49 37 49 -2 0 -152 -148 -333 -330z"/>
<path d="M1235 1080 c3 -5 8 -10 11 -10 2 0 4 5 4 10 0 6 -5 10 -11 10 -5 0
-7 -4 -4 -10z"/>
<path d="M1350 1070 c-6 -11 -15 -18 -19 -15 -5 2 -14 -2 -20 -9 -26 -31 8
-23 39 9 19 19 29 35 22 35 -6 0 -16 -9 -22 -20z"/>
<path d="M958 573 c-285 -285 -518 -522 -518 -528 1 -5 5 -2 11 8 6 9 14 15
20 12 5 -4 9 1 9 9 0 8 20 29 45 46 25 17 45 38 45 46 0 8 4 13 9 10 4 -3 19
6 31 19 13 14 19 25 14 25 -5 1 4 8 19 16 15 8 25 19 22 25 -4 5 2 12 12 16
18 7 49 33 39 33 -3 0 2 8 12 18 9 11 20 17 23 16 4 -2 14 5 24 16 10 11 15
20 11 20 -3 0 6 14 21 30 14 17 33 30 40 30 8 0 12 4 9 9 -8 12 29 43 39 34 4
-5 5 -2 1 5 -4 7 -1 12 8 12 8 0 21 10 27 22 16 30 111 124 122 120 5 -1 7 1
4 5 -2 5 4 16 15 26 10 9 18 14 18 10 0 -3 13 12 29 33 32 43 100 109 113 109
9 0 78 77 78 88 0 4 7 7 16 7 8 0 13 4 10 9 -6 9 12 28 27 30 9 1 49 41 41 41
-4 0 -1 7 6 15 7 8 16 12 21 9 5 -3 9 0 9 6 0 6 12 22 28 35 15 13 23 25 17
25 -5 0 -242 -233 -527 -517z"/>
<path d="M1643 1020 c-40 -39 -73 -73 -73 -76 0 -3 -29 -34 -65 -69 -36 -35
-65 -61 -65 -58 0 3 -12 -9 -27 -27 -51 -58 -73 -81 -73 -75 0 3 -38 -34 -85
-82 -47 -48 -85 -90 -85 -93 0 -4 -11 -13 -25 -20 -13 -7 -23 -16 -22 -19 1
-3 -20 -27 -46 -53 -26 -26 -47 -46 -47 -44 0 2 -17 -12 -38 -33 -21 -20 -36
-39 -34 -43 2 -5 0 -8 -5 -8 -12 0 -131 -118 -125 -125 3 -3 1 -5 -4 -5 -10 0
-81 -67 -134 -125 -20 -23 -21 -26 -5 -17 27 15 1053 1042 1040 1042 -5 0 -43
-32 -82 -70z"/>
<path d="M1817 1083 c-10 -9 -9 -23 1 -23 5 0 9 7 9 15 0 17 -1 18 -10 8z"/>
<path d="M1879 1022 l-54 -57 55 50 c30 28 57 51 59 53 2 1 2 4 0 7 -3 2 -30
-21 -60 -53z"/>
<path d="M2160 1064 c0 -9 -5 -12 -12 -8 -7 4 -8 3 -4 -4 4 -7 1 -12 -8 -12
-9 0 -16 -7 -16 -15 0 -8 -3 -14 -8 -12 -9 3 -112 -103 -112 -117 0 -5 -3 -6
-7 -3 -7 7 -32 -22 -33 -38 0 -5 29 20 65 55 36 35 65 71 65 79 0 8 3 11 7 7
4 -3 24 10 45 31 38 37 47 53 28 53 -5 0 -10 -7 -10 -16z"/>
<path d="M1062 1027 c-23 -23 -42 -46 -42 -50 0 -5 20 13 45 40 25 26 45 49
45 50 0 7 -9 0 -48 -40z"/>
<path d="M2245 1040 c-16 -16 -27 -32 -24 -34 2 -2 18 12 35 30 38 42 29 45
-11 4z"/>
<path d="M1766 1029 c-16 -16 -26 -33 -22 -36 3 -4 6 -1 6 6 0 7 3 10 8 8 11
-6 56 40 45 46 -5 3 -22 -8 -37 -24z"/>
<path d="M370 1029 c0 -5 5 -7 10 -4 6 3 10 8 10 11 0 2 -4 4 -10 4 -5 0 -10
-5 -10 -11z"/>
<path d="M2940 1025 c0 -8 -3 -14 -7 -13 -11 4 -103 -90 -103 -104 0 -6 -2 -9
-5 -6 -7 6 -97 -77 -95 -87 1 -4 -9 -15 -23 -24 -41 -27 -87 -75 -87 -90 0 -8
-3 -11 -7 -8 -7 7 -63 -51 -63 -65 0 -5 -4 -7 -9 -3 -5 3 -12 -4 -16 -15 -3
-11 -11 -20 -17 -20 -13 0 -88 -79 -88 -93 0 -6 -3 -8 -6 -5 -7 7 -104 -91
-104 -105 0 -6 61 50 135 124 74 73 135 140 135 148 0 8 3 11 7 8 7 -7 348
326 364 356 6 11 6 17 -1 17 -5 0 -10 -7 -10 -15z"/>
<path d="M1163 1005 c0 -8 4 -12 9 -9 4 3 8 9 8 15 0 5 -4 9 -8 9 -5 0 -9 -7
-9 -15z"/>
<path d="M1243 970 c-59 -65 -54 -75 7 -15 47 46 60 66 43 64 -5 -1 -27 -22
-50 -49z"/>
<path d="M308 971 c-23 -22 -40 -42 -38 -45 3 -2 25 16 49 40 54 55 47 58 -11
5z"/>
<path d="M1732 527 c-259 -259 -472 -476 -472 -480 0 -4 17 10 37 33 20 22 43
40 49 40 7 0 15 9 19 19 3 11 15 23 26 26 10 4 17 10 14 15 -6 10 20 32 28 23
4 -3 7 -1 7 5 0 15 80 98 91 95 5 -2 9 4 9 13 0 8 5 12 10 9 6 -3 10 1 10 10
0 9 5 13 10 10 6 -4 9 -2 8 3 -3 11 78 92 92 92 6 0 10 6 10 13 0 11 38 51 50
52 12 1 30 17 26 24 -5 8 93 107 108 109 5 0 14 11 21 24 6 13 17 22 23 20 7
-1 12 2 12 8 0 14 81 96 91 93 5 -2 8 1 6 6 -3 11 75 87 86 83 5 -1 6 1 3 6
-6 9 29 42 44 42 6 0 9 6 8 13 -2 6 4 11 12 9 8 -2 12 -1 8 3 -9 10 24 45 35
38 6 -3 7 -1 3 5 -4 7 -8 12 -9 12 -1 0 -215 -213 -475 -473z"/>
<path d="M195 980 c-3 -6 1 -7 9 -4 18 7 21 14 7 14 -6 0 -13 -4 -16 -10z"/>
<path d="M1697 962 c-29 -30 -33 -42 -17 -42 6 0 9 5 8 12 -2 7 2 12 9 13 15
0 26 12 29 30 3 20 2 19 -29 -13z"/>
<path d="M2310 979 c0 -5 5 -7 10 -4 6 3 10 8 10 11 0 2 -4 4 -10 4 -5 0 -10
-5 -10 -11z"/>
<path d="M387 930 c-50 -54 -47 -62 4 -11 23 23 40 44 37 46 -3 3 -21 -13 -41
-35z"/>
<path d="M942 907 c-34 -34 -62 -66 -62 -70 0 -8 65 57 114 112 39 43 9 19
-52 -42z"/>
<path d="M145 930 c-16 -16 -26 -30 -22 -30 4 0 21 14 39 30 17 17 27 30 21
30 -5 0 -22 -13 -38 -30z"/>
<path d="M1705 848 c-61 -62 -87 -91 -59 -65 27 26 54 44 58 40 4 -5 6 -3 4 4
-1 7 26 39 61 73 35 33 60 60 55 60 -5 0 -59 -51 -119 -112z"/>
<path d="M1926 943 c-6 -14 -5 -15 5 -6 7 7 10 15 7 18 -3 3 -9 -2 -12 -12z"/>
<path d="M388 822 c-65 -65 -118 -121 -118 -125 0 -4 17 10 37 32 20 22 40 38
45 35 4 -3 8 3 8 12 0 10 3 14 7 11 3 -4 16 7 28 23 12 16 25 27 28 24 3 -4
14 8 25 25 10 17 22 28 25 24 4 -3 7 1 7 11 0 11 5 15 13 10 6 -4 9 -4 5 1 -4
4 0 14 10 21 9 7 13 13 7 13 -5 1 -63 -52 -127 -117z"/>
<path d="M2320 877 c-36 -35 -76 -76 -90 -93 -14 -16 -28 -29 -31 -29 -3 0
-19 -16 -35 -35 -35 -41 -152 -154 -165 -158 -5 -2 -9 -7 -9 -12 0 -4 -16 -24
-35 -43 -19 -19 -35 -34 -35 -33 0 3 -315 -315 -337 -339 -10 -11 -33 -32 -51
-47 -17 -15 -28 -29 -24 -32 4 -2 208 195 452 440 245 244 440 444 435 444 -6
0 -39 -29 -75 -63z"/>
<path d="M1181 908 c-1 -10 -6 -17 -13 -15 -6 1 -17 -9 -25 -23 -7 -14 -13
-20 -13 -15 0 6 -8 -2 -18 -18 -10 -15 -22 -24 -25 -20 -4 3 -7 -2 -7 -12 0
-16 6 -13 35 15 19 19 35 40 35 48 0 7 4 11 9 8 12 -8 34 21 28 36 -4 8 -6 7
-6 -4z"/>
<path d="M1645 909 c-10 -15 3 -25 16 -12 7 7 7 13 1 17 -6 3 -14 1 -17 -5z"/>
<path d="M2924 898 l-19 -23 25 20 c14 11 27 21 29 22 2 2 0 3 -6 3 -5 0 -18
-10 -29 -22z"/>
<path d="M1059 893 c-13 -16 -12 -17 4 -4 9 7 17 15 17 17 0 8 -8 3 -21 -13z"/>
<path d="M678 873 c-19 -15 -46 -42 -59 -59 -13 -18 -27 -30 -30 -28 -7 4 -22
-26 -16 -32 2 -2 36 30 77 71 78 79 87 93 28 48z"/>
<path d="M2450 879 c-7 -11 -14 -18 -17 -15 -3 3 -17 -9 -30 -26 -12 -18 -23
-28 -23 -24 0 5 -13 -8 -29 -28 -16 -20 -32 -36 -35 -34 -3 2 -17 -12 -31 -31
-14 -19 -25 -32 -25 -28 0 4 -17 -12 -37 -35 -59 -65 -81 -86 -87 -82 -3 2 -4
1 -1 -2 2 -4 -6 -15 -18 -25 -12 -10 -17 -18 -12 -19 6 0 93 83 195 185 102
102 179 185 173 185 -7 0 -17 -9 -23 -21z"/>
<path d="M77 862 c-15 -15 -27 -32 -27 -38 0 -5 5 -1 11 9 6 9 16 14 22 11 7
-4 9 -3 4 1 -4 5 0 17 10 27 26 29 9 21 -20 -10z"/>
<path d="M331 883 c-1 -7 -20 -29 -42 -50 -23 -21 -60 -58 -83 -82 -94 -100
-126 -131 -135 -131 -5 0 -11 -7 -15 -15 -3 -8 -2 -15 2 -15 17 0 284 279 279
292 -4 9 -6 9 -6 1z"/>
<path d="M1610 875 c-18 -21 -3 -32 16 -13 10 9 12 18 6 22 -5 3 -15 -1 -22
-9z"/>
<path d="M1026 863 c-6 -14 -5 -15 5 -6 7 7 10 15 7 18 -3 3 -9 -2 -12 -12z"/>
<path d="M2515 838 c-28 -30 -31 -35 -10 -18 16 14 31 28 33 33 2 4 8 5 13 1
5 -3 9 2 9 10 0 22 -1 21 -45 -26z"/>
<path d="M194 856 c-10 -8 -16 -17 -13 -20 3 -3 14 3 24 14 21 23 17 26 -11 6z"/>
<path d="M1835 860 c-3 -6 1 -7 9 -4 18 7 21 14 7 14 -6 0 -13 -4 -16 -10z"/>
<path d="M2487 462 c-224 -224 -407 -410 -407 -413 0 -3 41 35 91 85 50 50 95
91 100 91 5 0 9 4 8 8 -1 12 50 57 63 57 6 0 8 3 4 7 -9 9 95 114 106 107 5
-3 7 -1 6 4 -4 13 153 168 166 164 6 -2 8 0 3 4 -10 11 54 75 67 67 6 -3 8 -2
4 2 -5 5 42 57 102 117 61 59 107 108 103 108 -5 0 -191 -183 -416 -408z"/>
<path d="M1941 847 c-1 -10 -5 -16 -9 -13 -4 2 -13 -4 -20 -15 -7 -10 -8 -19
-4 -19 16 0 44 39 39 52 -3 8 -6 6 -6 -5z"/>
<path d="M996 833 c-6 -14 -5 -15 5 -6 7 7 10 15 7 18 -3 3 -9 -2 -12 -12z"/>
<path d="M1576 841 c-4 -5 -2 -12 3 -15 5 -4 12 -2 15 3 4 5 2 12 -3 15 -5 4
-12 2 -15 -3z"/>
<path d="M842 807 c-12 -13 -22 -27 -22 -32 0 -4 11 4 26 20 14 15 23 29 21
31 -2 2 -13 -6 -25 -19z"/>
<path d="M958 803 c-29 -34 -31 -48 -3 -20 15 15 26 30 23 32 -3 3 -12 -3 -20
-12z"/>
<path d="M1525 790 c-16 -16 -26 -33 -22 -36 9 -9 37 15 37 33 0 8 4 12 8 9 5
-3 9 1 9 9 0 19 1 20 -32 -15z"/>
<path d="M2935 790 c-10 -11 -13 -20 -8 -20 13 0 38 29 31 35 -3 3 -13 -4 -23
-15z"/>
<path d="M120 785 c-7 -8 -8 -15 -2 -15 5 0 15 7 22 15 7 8 8 15 2 15 -5 0
-15 -7 -22 -15z"/>
<path d="M1017 746 c-27 -28 -66 -70 -88 -94 -21 -23 -39 -39 -39 -35 0 5 -8
-4 -18 -20 -10 -15 -21 -25 -24 -22 -9 9 -30 -23 -25 -37 4 -8 8 -5 12 9 4 13
11 21 15 18 9 -6 140 129 140 145 0 6 4 9 9 5 5 -3 12 4 16 15 4 11 10 18 14
15 10 -6 44 31 40 43 -2 4 -26 -15 -52 -42z"/>
<path d="M1865 778 c-11 -11 -20 -24 -20 -29 0 -5 -3 -9 -7 -9 -13 -1 -178
-167 -178 -179 0 -7 -4 -9 -10 -6 -5 3 -10 -2 -10 -12 0 -12 22 5 70 52 39 38
70 75 70 82 0 7 3 12 8 11 11 -4 72 54 72 69 0 8 4 12 9 9 5 -3 14 1 20 8 19
22 -2 26 -24 4z"/>
<path d="M2429 753 l-34 -38 40 35 c22 19 42 36 44 38 2 1 0 2 -5 2 -6 0 -26
-17 -45 -37z"/>
<path d="M779 744 c-23 -25 -23 -26 -2 -13 13 7 25 19 27 26 8 19 2 16 -25
-13z"/>
<path d="M531 726 c-7 -13 -24 -29 -37 -36 -13 -7 -21 -16 -19 -20 3 -4 -5
-15 -18 -23 -32 -21 -137 -128 -137 -139 0 -5 -4 -6 -10 -3 -5 3 -10 0 -10 -7
0 -7 -13 -22 -29 -33 -16 -10 -28 -22 -26 -25 1 -3 -3 -11 -11 -18 -8 -7 -14
-10 -14 -6 0 3 -15 -12 -33 -33 -17 -21 -51 -56 -75 -77 -24 -22 -48 -49 -54
-60 -6 -12 105 94 246 234 141 140 256 258 256 262 0 16 -17 7 -29 -16z"/>
<path d="M1455 720 c-16 -16 -25 -33 -22 -37 4 -3 7 -1 7 6 0 7 5 9 13 5 6 -4
9 -4 5 1 -10 10 11 37 22 30 5 -3 11 -1 14 4 15 24 -14 17 -39 -9z"/>
<path d="M1545 690 c-22 -22 -37 -40 -34 -40 11 0 83 69 78 74 -3 3 -23 -12
-44 -34z"/>
<path d="M2855 710 c-3 -6 1 -7 9 -4 18 7 21 14 7 14 -6 0 -13 -4 -16 -10z"/>
<path d="M626 590 c-66 -66 -118 -121 -115 -124 2 -2 59 52 127 120 67 68 119
124 114 124 -4 0 -61 -54 -126 -120z"/>
<path d="M2325 650 c-33 -33 -56 -60 -53 -60 10 0 121 111 116 116 -2 2 -31
-23 -63 -56z"/>
<path d="M215 650 c-22 -22 -34 -40 -27 -40 7 0 15 7 18 15 4 8 12 15 20 15 8
0 14 6 14 14 0 8 6 16 13 19 6 2 9 7 6 10 -3 4 -23 -11 -44 -33z"/>
<path d="M2007 683 c-4 -3 -7 -11 -7 -17 0 -6 5 -5 12 2 6 6 9 14 7 17 -3 3
-9 2 -12 -2z"/>
<path d="M2898 633 c-31 -32 -64 -65 -75 -74 -10 -9 -63 -63 -119 -120 -55
-57 -121 -123 -145 -145 -82 -77 -252 -254 -244 -254 11 0 624 610 636 633 16
28 6 20 -53 -40z"/>
<path d="M821 663 c-7 -8 -11 -16 -8 -19 2 -2 10 2 17 11 17 20 9 27 -9 8z"/>
<path d="M1407 673 c-10 -9 -9 -23 1 -23 5 0 9 7 9 15 0 17 -1 18 -10 8z"/>
<path d="M1626 655 c-3 -8 -1 -15 4 -15 6 0 10 7 10 15 0 8 -2 15 -4 15 -2 0
-6 -7 -10 -15z"/>
<path d="M1370 635 c-18 -21 -3 -32 16 -13 10 9 12 18 6 22 -5 3 -15 -1 -22
-9z"/>
<path d="M1479 623 c-13 -16 -12 -17 4 -4 16 13 21 21 13 21 -2 0 -10 -8 -17
-17z"/>
<path d="M1301 565 c-28 -27 -39 -45 -32 -49 7 -4 10 -2 9 5 -2 7 2 13 9 14
16 0 76 62 66 68 -4 3 -28 -14 -52 -38z m19 1 c0 -2 -8 -10 -17 -17 -16 -13
-17 -12 -4 4 13 16 21 21 21 13z"/>
<path d="M114 548 c-28 -29 -57 -62 -65 -72 -14 -19 -13 -19 14 -2 15 10 27
22 27 27 0 15 43 59 57 59 8 0 11 5 8 10 -3 6 4 14 17 19 13 6 17 10 8 10 -9
1 -38 -23 -66 -51z"/>
<path d="M1182 327 c-150 -150 -272 -275 -272 -279 0 -3 46 40 102 95 56 56
105 101 110 99 4 -1 7 2 6 7 -4 10 158 171 166 165 3 -2 4 -2 2 1 -2 3 35 44
81 91 46 47 83 88 81 89 -2 2 -126 -118 -276 -268z"/>
<path d="M1905 579 c-4 -6 -5 -12 -2 -15 2 -3 7 2 10 11 7 17 1 20 -8 4z"/>
<path d="M1075 570 c-3 -6 1 -7 9 -4 18 7 21 14 7 14 -6 0 -13 -4 -16 -10z"/>
<path d="M1985 310 c-148 -149 -267 -270 -263 -270 4 0 68 61 141 135 74 74
138 131 142 127 3 -4 5 -2 3 4 -2 7 55 69 125 139 71 70 127 128 125 130 -2 2
-125 -117 -273 -265z"/>
<path d="M2907 520 c-26 -27 -47 -47 -47 -45 0 3 -8 -3 -18 -12 -11 -10 -18
-20 -18 -23 1 -3 -47 -53 -106 -111 -60 -58 -108 -104 -108 -103 0 2 -19 -17
-42 -42 -24 -25 -65 -68 -93 -96 -27 -28 -41 -46 -30 -40 23 12 515 504 515
515 0 12 -4 9 -53 -43z"/>
<path d="M705 550 c-3 -5 -1 -10 4 -10 6 0 11 5 11 10 0 6 -2 10 -4 10 -3 0
-8 -4 -11 -10z"/>
<path d="M751 477 c-30 -31 -52 -59 -50 -62 7 -7 112 102 108 111 -2 5 -28
-17 -58 -49z"/>
<path d="M1612 528 c-6 -6 -12 -19 -12 -27 0 -8 -2 -12 -6 -9 -7 8 -74 -57
-74 -72 0 -7 -3 -10 -6 -7 -8 8 -44 -31 -44 -46 0 -6 -3 -7 -6 -4 -8 8 -104
-91 -104 -107 0 -6 61 51 136 126 75 75 134 142 132 148 -2 7 -7 7 -16 -2z"/>
<path d="M2075 510 c-4 -11 -11 -17 -17 -14 -6 4 -9 3 -6 -2 3 -5 -12 -22 -33
-39 -21 -16 -38 -36 -39 -43 0 -7 -4 -11 -9 -8 -8 6 -25 -23 -18 -30 2 -2 36
30 76 70 41 41 68 76 63 80 -6 3 -13 -3 -17 -14z"/>
<path d="M661 509 c-1 -9 -11 -24 -23 -32 -13 -9 -18 -16 -12 -16 17 -1 47 36
41 51 -4 9 -6 8 -6 -3z"/>
<path d="M1235 499 c-10 -15 3 -25 16 -12 7 7 7 13 1 17 -6 3 -14 1 -17 -5z"/>
<path d="M176 485 c-11 -8 -15 -15 -9 -15 6 0 16 7 23 15 16 19 11 19 -14 0z"/>
<path d="M1200 465 c-7 -9 -10 -18 -6 -22 3 -3 6 -1 6 6 0 7 4 10 9 6 5 -3 12
-1 15 4 11 17 -11 21 -24 6z"/>
<path d="M2615 470 c-3 -5 -1 -10 4 -10 6 0 11 5 11 10 0 6 -2 10 -4 10 -3 0
-8 -4 -11 -10z"/>
<path d="M417 382 c-42 -43 -77 -80 -77 -83 0 -4 36 29 81 73 44 44 79 81 77
84 -2 2 -39 -31 -81 -74z"/>
<path d="M1775 449 c-4 -6 -5 -12 -2 -15 2 -3 7 2 10 11 7 17 1 20 -8 4z"/>
<path d="M2911 416 c-24 -24 -41 -50 -38 -58 3 -8 9 -2 16 15 6 16 16 25 21
22 6 -4 9 -2 8 3 -2 5 8 19 21 31 13 12 22 23 19 26 -2 2 -24 -15 -47 -39z"/>
<path d="M590 435 c-7 -9 -11 -17 -8 -20 2 -2 12 4 21 15 9 11 13 20 8 20 -5
0 -14 -7 -21 -15z"/>
<path d="M1165 429 c-10 -15 3 -25 16 -12 7 7 7 13 1 17 -6 3 -14 1 -17 -5z"/>
<path d="M641 371 c-24 -27 -48 -55 -52 -63 -5 -7 -9 -10 -9 -7 0 4 -16 -8
-36 -26 -20 -19 -34 -39 -31 -47 4 -8 6 -7 6 5 1 10 5 16 9 13 10 -6 142 128
142 144 0 6 5 8 10 5 6 -3 10 1 10 9 0 9 -1 16 -3 16 -1 0 -22 -22 -46 -49z"/>
<path d="M552 394 c-7 -8 -8 -14 -3 -14 10 0 25 19 20 25 -2 1 -10 -3 -17 -11z"/>
<path d="M1117 382 c-29 -30 -33 -42 -17 -42 6 0 9 6 8 13 -2 6 2 11 8 10 16
-3 48 34 36 41 -5 3 -21 -7 -35 -22z m33 14 c0 -2 -8 -10 -17 -17 -16 -13 -17
-12 -4 4 13 16 21 21 21 13z"/>
<path d="M182 267 c-73 -74 -132 -139 -132 -145 0 -20 7 -14 29 24 12 19 25
33 30 30 5 -3 11 4 14 15 3 11 15 23 26 26 12 3 21 10 21 16 0 14 102 113 113
109 5 -1 6 2 2 8 -3 5 9 19 27 30 18 11 26 20 18 20 -9 0 -75 -60 -148 -133z"/>
<path d="M2291 374 c0 -11 3 -14 6 -6 3 7 2 16 -1 19 -3 4 -6 -2 -5 -13z"/>
<path d="M2515 370 c-3 -5 -1 -10 4 -10 6 0 11 5 11 10 0 6 -2 10 -4 10 -3 0
-8 -4 -11 -10z"/>
<path d="M1930 361 c0 -7 -4 -9 -10 -6 -5 3 -10 -1 -10 -10 0 -9 -4 -13 -10
-10 -5 3 -10 2 -10 -3 0 -5 -9 -19 -20 -32 -11 -13 -20 -20 -20 -16 0 4 -12
-7 -27 -26 -46 -54 -92 -96 -99 -89 -4 3 -5 2 -2 -4 5 -12 -38 -56 -46 -47 -3
3 -6 0 -6 -6 0 -6 -10 -20 -22 -32 -12 -11 -19 -22 -17 -25 3 -2 74 65 159
150 85 85 151 157 147 161 -4 4 -7 2 -7 -5z"/>
<path d="M2267 364 c-4 -4 -7 -14 -7 -23 0 -11 3 -12 11 -4 6 6 10 16 7 23 -2
6 -7 8 -11 4z"/>
<path d="M2830 335 c-13 -14 -18 -25 -12 -25 7 0 12 5 12 11 0 5 4 8 9 5 5 -3
12 1 15 10 10 26 1 26 -24 -1z"/>
<path d="M1047 310 c-16 -15 -24 -31 -19 -34 10 -6 55 41 50 54 -2 5 -16 -4
-31 -20z"/>
<path d="M2188 278 c-32 -32 -58 -63 -58 -69 0 -6 -4 -7 -10 -4 -5 3 -10 -2
-10 -11 0 -10 -3 -15 -6 -11 -7 6 -35 -18 -34 -29 1 -3 -7 -12 -17 -19 -10 -7
-16 -16 -13 -19 8 -7 213 200 209 211 -2 5 -30 -17 -61 -49z"/>
<path d="M2450 305 c-8 -9 -8 -15 -2 -15 12 0 26 19 19 26 -2 2 -10 -2 -17
-11z"/>
<path d="M2742 247 c-52 -53 -61 -67 -41 -67 5 0 8 3 6 8 -6 9 19 33 27 25 3
-3 10 6 16 21 5 15 16 29 24 32 12 5 32 34 23 34 -2 0 -26 -24 -55 -53z"/>
<path d="M310 275 c-7 -9 -11 -17 -9 -20 3 -2 10 5 17 15 14 24 10 26 -8 5z"/>
<path d="M995 261 c-6 -11 9 -23 19 -14 9 9 7 23 -3 23 -6 0 -12 -4 -16 -9z"/>
<path d="M400 245 c-8 -9 -8 -15 -2 -15 12 0 26 19 19 26 -2 2 -10 -2 -17 -11z"/>
<path d="M1323 236 c-13 -13 -23 -29 -23 -35 0 -7 -4 -9 -10 -6 -5 3 -10 -1
-10 -9 0 -9 -4 -16 -9 -16 -14 0 -71 -57 -71 -71 0 -7 -3 -10 -6 -6 -3 3 -17
-5 -31 -19 -14 -14 -23 -28 -19 -31 8 -8 167 149 189 186 22 37 19 38 -10 7z"/>
<path d="M187 152 c-53 -53 -97 -100 -97 -104 0 -6 129 120 179 175 55 60 10
21 -82 -71z"/>
<path d="M947 212 c-29 -30 -33 -42 -17 -42 6 0 10 7 10 15 0 8 5 14 12 13 7
-2 13 4 13 12 1 8 7 14 14 12 7 -1 10 2 6 8 -8 13 -8 14 -38 -18z"/>
<path d="M1560 229 c0 -5 5 -7 10 -4 6 3 10 8 10 11 0 2 -4 4 -10 4 -5 0 -10
-5 -10 -11z"/>
<path d="M456 179 c-21 -22 -36 -42 -34 -44 2 -3 22 13 43 35 21 22 36 42 33
45 -2 3 -22 -13 -42 -36z"/>
<path d="M2915 185 c-22 -19 -35 -35 -30 -35 6 -1 -2 -8 -17 -16 -16 -8 -28
-22 -28 -30 0 -8 -4 -13 -8 -10 -5 3 -19 -8 -31 -25 -38 -51 5 -20 80 58 90
94 106 121 34 58z"/>
<path d="M1525 199 c-4 -6 -5 -12 -2 -15 2 -3 7 2 10 11 7 17 1 20 -8 4z"/>
<path d="M2349 193 c-13 -16 -12 -17 4 -4 16 13 21 21 13 21 -2 0 -10 -8 -17
-17z"/>
<path d="M319 160 c-18 -16 -31 -31 -28 -33 2 -3 19 11 38 29 42 42 34 45 -10
4z"/>
<path d="M2637 142 c-25 -25 -32 -39 -22 -39 8 0 15 7 15 14 0 9 5 11 13 7 6
-4 9 -3 4 1 -4 5 3 19 15 32 36 39 15 26 -25 -15z"/>
<path d="M895 159 c-10 -15 3 -25 16 -12 7 7 7 13 1 17 -6 3 -14 1 -17 -5z"/>
<path d="M2285 140 c-3 -5 -1 -10 4 -10 6 0 11 5 11 10 0 6 -2 10 -4 10 -3 0
-8 -4 -11 -10z"/>
<path d="M635 130 c-3 -5 -1 -10 4 -10 6 0 11 5 11 10 0 6 -2 10 -4 10 -3 0
-8 -4 -11 -10z"/>
<path d="M861 126 c-7 -8 -8 -17 -3 -20 6 -3 15 1 21 8 7 8 8 17 3 20 -6 3
-15 -1 -21 -8z"/>
<path d="M377 101 c-14 -16 -34 -34 -44 -39 -10 -6 -15 -14 -11 -17 4 -4 26
11 50 33 23 22 40 43 37 46 -3 3 -17 -7 -32 -23z"/>
<path d="M1992 82 c-18 -19 -31 -36 -29 -39 7 -6 69 56 65 65 -2 4 -18 -8 -36
-26z"/>
<path d="M236 72 l-19 -27 24 22 c12 12 21 24 18 27 -2 2 -13 -8 -23 -22z"/>
<path d="M827 93 c-10 -9 -9 -23 1 -23 5 0 9 7 9 15 0 17 -1 18 -10 8z"/>
<path d="M2920 75 c-13 -14 -22 -26 -19 -28 2 -1 16 10 31 25 15 15 23 28 19
28 -4 0 -18 -11 -31 -25z"/>
<path d="M2567 72 c-10 -10 -17 -22 -17 -27 0 -4 8 1 18 12 9 11 24 22 32 26
13 5 13 6 -1 6 -9 1 -23 -7 -32 -17z"/>
<path d="M2220 70 c-9 -6 -10 -10 -3 -10 6 0 15 5 18 10 8 12 4 12 -15 0z"/>
<path d="M795 59 c-4 -6 -5 -12 -2 -15 2 -3 7 2 10 11 7 17 1 20 -8 4z"/>
</g>
</svg>
